<svg width="43" height="40" viewBox="0 0 43 40" fill="none" xmlns="http://www.w3.org/2000/svg">
<path fill-rule="evenodd" clip-rule="evenodd" d="M40.3013 8.46747V30.1845C41.6883 31.0991 42.6211 32.7008 42.6162 34.5198C42.6162 37.3595 40.3843 39.6687 37.6396 39.6687C34.8949 39.6687 32.663 37.3595 32.663 34.5198C32.663 32.7008 33.5811 31.1142 34.9584 30.1946L35.1342 10.2814C34.9877 10.241 34.846 10.1955 34.7044 10.145L25.2835 31.7408C25.7817 32.5442 26.0796 33.4941 26.0796 34.5198C26.0796 37.3595 23.8477 39.6687 21.103 39.6687C18.3583 39.6687 16.1264 37.3595 16.1264 34.5198C16.1264 33.4385 16.4536 32.433 17.0103 31.6044L7.81411 10.1551C7.68224 10.2056 7.5455 10.2511 7.40875 10.2865L7.58945 30.1593C9.00088 31.0688 9.95322 32.6806 9.95322 34.5249C9.95322 37.3646 7.72131 39.6737 4.97661 39.6737C2.2319 39.6737 0 37.3646 0 34.5249C0 32.7261 0.893738 31.1446 2.24656 30.2249V8.47758C1.58724 7.60344 1.177 6.51708 1.177 5.32461C1.177 2.48492 3.4089 0.175781 6.15361 0.175781C8.89832 0.175781 11.1302 2.48492 11.1302 5.32461C11.1302 5.40065 11.1206 5.47272 11.111 5.54455C11.1054 5.58726 11.0997 5.62993 11.096 5.67326L21.1713 29.174L31.4567 5.78442C31.4519 5.73469 31.4455 5.68496 31.4391 5.63505C31.426 5.5329 31.4127 5.42979 31.4127 5.32461C31.4127 2.48492 33.6446 0.175781 36.3893 0.175781C39.134 0.175781 41.3659 2.48492 41.3659 5.32461C41.3659 6.51203 40.9557 7.59333 40.3013 8.46747ZM4.97661 38.4914C7.08153 38.4914 8.78599 36.7279 8.78599 34.5502C8.78599 32.3774 7.08153 30.609 4.97661 30.609C2.87168 30.609 1.16723 32.3724 1.16723 34.5502C1.16723 36.7279 2.87168 38.4914 4.97661 38.4914ZM2.34423 5.37514C2.34423 7.55291 4.04868 9.31635 6.15361 9.31635C8.25854 9.31635 9.96299 7.55291 9.9581 5.37514C9.9581 3.45507 8.62971 1.85837 6.87153 1.50973C6.63711 1.4592 6.3978 1.43394 6.14873 1.43394C5.90454 1.43394 5.66523 1.4592 5.43081 1.50973C3.67263 1.85837 2.34423 3.45507 2.34423 5.37514ZM17.2985 34.5502C17.2985 36.7279 19.0029 38.4914 21.1079 38.4914C23.2079 38.4914 24.9124 36.7279 24.9172 34.5502C24.9172 32.3724 23.2128 30.609 21.1079 30.609C19.0029 30.609 17.2985 32.3724 17.2985 34.5502ZM35.6616 1.50973C33.9035 1.85837 32.5751 3.45507 32.5751 5.37514C32.5751 7.55291 34.2844 9.31635 36.3796 9.31635C38.4845 9.31635 40.1889 7.55291 40.1889 5.37514C40.1889 3.45507 38.8605 1.85837 37.1024 1.50973C36.8679 1.4592 36.6286 1.43394 36.3796 1.43394C36.1354 1.43394 35.8961 1.4592 35.6616 1.50973ZM33.8302 34.5502C33.8302 36.7279 35.5347 38.4914 37.6396 38.4914C39.7445 38.4914 41.449 36.7279 41.449 34.5502C41.449 32.3724 39.7445 30.609 37.6396 30.609C35.5347 30.609 33.8302 32.3724 33.8302 34.5502Z" fill="#174B7E"/>
</svg>
