<svg width="196" height="38" viewBox="0 0 196 38" fill="none" xmlns="http://www.w3.org/2000/svg">
<path d="M66.7016 11.5851H64.6528C64.7307 13.3756 65.2968 14.7521 66.3513 15.7145C67.4129 16.6699 68.892 17.1476 70.7886 17.1476C72.6286 17.1476 74.0865 16.7018 75.1622 15.8101C76.245 14.9184 76.7864 13.7188 76.7864 12.2114C76.7864 11.5886 76.6767 11.026 76.4573 10.5235C76.2379 10.014 75.9195 9.58228 75.5019 9.22843C74.9499 8.76134 73.8317 8.32611 72.1474 7.92272C72.0413 7.89441 71.9669 7.87671 71.9245 7.86964L71.0434 7.65733C68.4673 7.06286 67.1793 6.16053 67.1793 4.95036C67.1793 4.19312 67.4907 3.58803 68.1135 3.1351C68.7363 2.6751 69.5678 2.44509 70.6082 2.44509C71.7192 2.44509 72.5933 2.72464 73.2302 3.28372C73.8742 3.84281 74.2316 4.64605 74.3024 5.69345L76.3299 5.68284L76.3296 5.65474L80.5354 17.3812L80.0365 18.7293C79.9162 19.0549 79.7428 19.292 79.5163 19.4406C79.2898 19.5892 78.9926 19.6635 78.6246 19.6635C78.4406 19.6635 78.2566 19.6494 78.0726 19.621C77.8886 19.5927 77.701 19.5503 77.51 19.4937V21.3195C77.701 21.3762 77.8886 21.4186 78.0726 21.4469C78.2637 21.4823 78.4547 21.5 78.6458 21.5C79.5163 21.5 80.1815 21.3089 80.6415 20.9268C81.1016 20.5446 81.558 19.7343 82.011 18.4958L86.7986 5.36437H84.6648L81.512 14.5574L78.3592 5.36437H76.3199C76.2435 3.9653 75.7444 2.85421 74.8225 2.03109C73.8317 1.13938 72.473 0.693527 70.7462 0.693527C69.0547 0.693527 67.6995 1.11815 66.6804 1.96739C65.6613 2.80956 65.1518 3.92773 65.1518 5.32191C65.1518 6.46131 65.4915 7.3424 66.1709 7.96518C66.8573 8.58088 68.2621 9.13997 70.3852 9.64243C70.4702 9.66366 70.5905 9.69197 70.7462 9.72736C73.3647 10.3501 74.6739 11.2595 74.6739 12.4556C74.6739 13.3331 74.3236 14.0267 73.623 14.5362C72.9294 15.0457 71.9776 15.3005 70.7674 15.3005C69.5431 15.3005 68.5629 14.9644 67.8269 14.292C67.0979 13.6197 66.7229 12.7174 66.7016 11.5851Z" fill="#194B7E"/>
<path d="M0 16.7909V1.1032H4.77128L7.89178 13.042L10.9697 1.1032H15.7623V16.7909H12.7376V4.1385L9.55322 16.7909H6.25166L3.02465 4.1385V16.7909H0Z" fill="#194B7E"/>
<path d="M18.1647 1.10333V3.92563H21.2639V1.10333H18.1647Z" fill="#194B7E"/>
<path d="M18.1647 5.2143V16.791H21.2639V5.2143H18.1647Z" fill="#194B7E"/>
<path d="M29.9608 1.10333V16.791H32.9748V13.1274L34.1463 11.86L36.9153 16.791H40.6322L36.3509 9.50632L40.3873 5.2143H36.6597L32.9748 9.33592V1.10333H29.9608Z" fill="#194B7E"/>
<path fill-rule="evenodd" clip-rule="evenodd" d="M39.8829 10.9868C39.8829 9.06265 40.4047 7.55033 41.4484 6.44981C42.4922 5.34929 43.9264 4.79903 45.7511 4.79903C47.5687 4.79903 48.9994 5.34929 50.0431 6.44981C51.0939 7.55033 51.6194 9.06265 51.6194 10.9868C51.6194 12.918 51.0939 14.4339 50.0431 15.5344C48.9994 16.6349 47.5687 17.1852 45.7511 17.1852C43.9264 17.1852 42.4922 16.6349 41.4484 15.5344C40.4047 14.4339 39.8829 12.918 39.8829 10.9868ZM43.0247 10.9868C43.0247 12.137 43.259 13.0245 43.7276 13.6493C44.2033 14.2741 44.8778 14.5865 45.7511 14.5865C46.6102 14.5865 47.2741 14.2741 47.7427 13.6493C48.2184 13.0245 48.4563 12.137 48.4563 10.9868C48.4563 9.84366 48.222 8.96325 47.7533 8.34554C47.2847 7.72073 46.6173 7.40832 45.7511 7.40832C44.8778 7.40832 44.2033 7.72073 43.7276 8.34554C43.259 8.96325 43.0247 9.84366 43.0247 10.9868Z" fill="#194B7E"/>
<path d="M55.0662 16.7908L50.902 5.21409H54.3314L56.7063 13.5212L59.1026 5.21409H62.3722L58.2293 16.7908H55.0662Z" fill="#194B7E"/>
<path d="M28.5331 16.8764C28.249 16.8835 27.9082 16.8942 27.5106 16.9084C27.1201 16.9297 26.8716 16.9403 26.7651 16.9403C25.5794 16.9403 24.7664 16.7202 24.3262 16.28C23.8931 15.8327 23.6766 14.9558 23.6766 13.6494V7.38711H22.1429V5.21448H23.6766V2.05137H26.7438V5.21448H28.5331V7.38711H26.7438V13.7985C26.7438 14.1038 26.8113 14.3062 26.9462 14.4056C27.0811 14.4979 27.358 14.544 27.7769 14.544H28.5331V16.8764Z" fill="#194B7E"/>
<path d="M184.159 1.52558V16.2328H185.507V9.11383H193.914V16.2328H195.282V1.52558H193.914V7.9057H185.507V1.52558H184.159Z" fill="#194B7E"/>
<path fill-rule="evenodd" clip-rule="evenodd" d="M173.314 16.2328V1.52558H174.542V7.50632C174.942 6.78743 175.451 6.24827 176.07 5.88882C176.689 5.52938 177.421 5.34966 178.267 5.34966C179.718 5.34966 180.863 5.84888 181.701 6.84734C182.547 7.84579 182.969 9.21035 182.969 10.941C182.969 12.665 182.54 14.0262 181.681 15.0247C180.829 16.0231 179.665 16.5224 178.187 16.5224C177.368 16.5224 176.646 16.3426 176.02 15.9832C175.401 15.6171 174.909 15.0879 174.542 14.3957V16.2328H173.314ZM174.483 10.941C174.483 12.3521 174.799 13.4538 175.431 14.2459C176.07 15.038 176.952 15.434 178.077 15.434C179.229 15.434 180.114 15.048 180.733 14.2758C181.352 13.497 181.661 12.3854 181.661 10.941C181.661 9.50323 181.349 8.39494 180.723 7.61615C180.104 6.8307 179.222 6.43797 178.077 6.43797C176.925 6.43797 176.037 6.82737 175.411 7.60616C174.792 8.38496 174.483 9.49657 174.483 10.941Z" fill="#194B7E"/>
<path d="M157.488 5.61924V16.2328H158.716V9.67296C158.716 8.71445 159.002 7.93898 159.574 7.34657C160.154 6.75415 160.909 6.45794 161.841 6.45794C162.6 6.45794 163.162 6.67095 163.528 7.09695C163.894 7.52296 164.077 8.17528 164.077 9.05392V16.2328H165.306V9.5831C165.306 8.64456 165.588 7.88573 166.154 7.30663C166.72 6.72752 167.472 6.43797 168.411 6.43797C169.203 6.43797 169.772 6.63101 170.118 7.01707C170.464 7.40314 170.637 8.04215 170.637 8.93411V16.2328H171.885V8.83426C171.885 7.66274 171.599 6.79076 171.027 6.21831C170.461 5.63921 169.602 5.34966 168.451 5.34966C167.692 5.34966 167.02 5.52938 166.434 5.88882C165.855 6.24161 165.389 6.75748 165.036 7.43643C164.863 6.77079 164.513 6.25825 163.988 5.89881C163.462 5.53271 162.803 5.34966 162.011 5.34966C161.272 5.34966 160.613 5.52605 160.034 5.87884C159.461 6.22497 158.995 6.72419 158.636 7.37652V5.61924H157.488Z" fill="#194B7E"/>
<path d="M154.91 16.2328L154.771 13.6368C154.318 14.582 153.639 15.3209 152.734 15.8534C151.835 16.3792 150.803 16.6422 149.639 16.6422C147.595 16.6422 145.984 15.9466 144.806 14.5554C143.635 13.1642 143.049 11.2638 143.049 8.85423C143.049 6.4646 143.648 4.58418 144.846 3.21296C146.044 1.8351 147.668 1.14616 149.719 1.14616C151.429 1.14616 152.817 1.55553 153.882 2.37426C154.954 3.18634 155.596 4.33123 155.809 5.80895H154.421C154.215 4.72396 153.696 3.87194 152.864 3.2529C152.032 2.63386 150.99 2.32434 149.738 2.32434C148.041 2.32434 146.73 2.89013 145.805 4.02171C144.886 5.14664 144.427 6.75082 144.427 8.83426C144.427 10.8511 144.889 12.4487 145.815 13.6268C146.74 14.805 147.995 15.3941 149.579 15.3941C151.196 15.3941 152.454 14.9182 153.353 13.9663C154.258 13.0145 154.711 11.6765 154.711 9.95253V9.89262H149.858V8.68449H155.999V16.2328H154.91Z" fill="#194B7E"/>
<path d="M132.217 13.0394H130.38C130.401 14.3487 130.801 15.3501 131.58 16.0436C132.365 16.7372 133.487 17.0839 134.945 17.0839C136.438 17.0839 137.599 16.7584 138.427 16.1073C139.262 15.4491 139.679 14.5291 139.679 13.3473C139.679 12.4485 139.432 11.7585 138.936 11.2772C138.441 10.7889 137.535 10.3891 136.219 10.0777L134.372 9.64243C133.685 9.48674 133.214 9.30627 132.96 9.10104C132.712 8.88873 132.588 8.59857 132.588 8.23057C132.588 7.71394 132.786 7.32117 133.183 7.05224C133.586 6.78331 134.173 6.64885 134.945 6.64885C135.716 6.64885 136.325 6.81516 136.771 7.14778C137.224 7.47332 137.471 7.93687 137.514 8.53842H139.371V8.49595C139.371 7.4344 138.972 6.58869 138.172 5.95884C137.372 5.32898 136.296 5.01406 134.945 5.01406C133.621 5.01406 132.577 5.31129 131.813 5.90576C131.056 6.49315 130.677 7.28932 130.677 8.29426C130.677 9.17889 130.911 9.86182 131.378 10.3431C131.852 10.8172 132.691 11.1994 133.894 11.4895L136.028 12.0415C136.714 12.2043 137.174 12.3989 137.408 12.6254C137.648 12.8448 137.768 13.1633 137.768 13.5808C137.768 14.1399 137.531 14.5822 137.057 14.9077C136.583 15.2262 135.936 15.3854 135.115 15.3854C134.223 15.3854 133.533 15.1873 133.045 14.791C132.563 14.3947 132.287 13.8108 132.217 13.0394Z" fill="#194B7E"/>
<path d="M126.998 16.7336V9.73797C126.998 8.5915 126.843 7.80948 126.531 7.39194C126.22 6.96732 125.678 6.755 124.907 6.755C123.987 6.755 123.272 7.04162 122.763 7.61486C122.253 8.18103 121.998 8.98073 121.998 10.014V16.7336H120.056V9.73797C120.056 8.5915 119.9 7.80948 119.589 7.39194C119.277 6.96732 118.739 6.755 117.975 6.755C117.062 6.755 116.347 7.04516 115.831 7.62548C115.314 8.19872 115.056 8.99488 115.056 10.014V16.7336H113.145V5.36437H114.971V6.96732C115.396 6.33038 115.898 5.85622 116.478 5.54483C117.059 5.23344 117.738 5.07775 118.517 5.07775C119.224 5.07775 119.829 5.22283 120.332 5.51299C120.834 5.79607 121.266 6.24546 121.627 6.86116C122.122 6.24546 122.664 5.79607 123.251 5.51299C123.838 5.22283 124.514 5.07775 125.279 5.07775C126.015 5.07775 126.655 5.21221 127.2 5.48114C127.745 5.74299 128.163 6.12515 128.453 6.62762C128.615 6.91778 128.732 7.26455 128.803 7.66794C128.874 8.07133 128.909 8.70827 128.909 9.57874V16.7336H126.998Z" fill="#194B7E"/>
<path fill-rule="evenodd" clip-rule="evenodd" d="M111.451 13.0606H109.562C109.413 13.7967 109.084 14.3664 108.574 14.7697C108.072 15.1661 107.432 15.3642 106.653 15.3642C105.634 15.3642 104.838 15.0387 104.265 14.3876C103.691 13.7294 103.394 12.8023 103.373 11.6063H111.579C111.593 11.5002 111.6 11.3905 111.6 11.2772C111.607 11.164 111.61 10.9906 111.61 10.7571C111.61 8.92412 111.161 7.50517 110.262 6.50023C109.371 5.49529 108.107 4.99282 106.473 4.99282C104.88 4.99282 103.631 5.53776 102.725 6.62762C101.819 7.71748 101.366 9.23197 101.366 11.1711C101.366 13.004 101.823 14.4513 102.736 15.5128C103.649 16.5744 104.894 17.1052 106.473 17.1052C107.817 17.1052 108.932 16.7442 109.816 16.0224C110.701 15.3005 111.246 14.3133 111.451 13.0606ZM109.604 10.014H103.362C103.454 8.93119 103.769 8.10672 104.307 7.54056C104.852 6.97439 105.595 6.69131 106.536 6.69131C107.513 6.69131 108.267 6.98147 108.797 7.56179C109.328 8.13503 109.597 8.95242 109.604 10.014Z" fill="#194B7E"/>
<path d="M99.3376 13.8674C99.3376 14.377 99.4084 14.7167 99.55 14.8865C99.6986 15.0564 99.9675 15.1413 100.357 15.1413C100.47 15.1413 100.604 15.1377 100.76 15.1307C100.923 15.1236 101.132 15.1094 101.386 15.0882V16.7124C101.068 16.769 100.781 16.8115 100.527 16.8398C100.279 16.8681 100.056 16.8822 99.8578 16.8822C98.959 16.8822 98.3292 16.7089 97.9682 16.3621C97.6073 16.0153 97.4268 15.3996 97.4268 14.515V6.88239H95.7284V5.36437H97.4268V2.19032H99.3376V5.36437H101.386V6.88239H99.3376V13.8674Z" fill="#194B7E"/>
<path d="M88.2435 13.0394H86.4071C86.4283 14.3487 86.8281 15.3501 87.6066 16.0436C88.3922 16.7372 89.5139 17.0839 90.9717 17.0839C92.465 17.0839 93.6256 16.7584 94.4536 16.1073C95.2887 15.4491 95.7063 14.5291 95.7063 13.3473C95.7063 12.4485 95.4586 11.7585 94.9632 11.2772C94.4678 10.7889 93.562 10.3891 92.2456 10.0777L90.3985 9.64243C89.712 9.48674 89.2414 9.30627 88.9866 9.10104C88.7389 8.88873 88.6151 8.59857 88.6151 8.23057C88.6151 7.71394 88.8132 7.32117 89.2096 7.05224C89.6129 6.78331 90.2003 6.64885 90.9717 6.64885C91.7431 6.64885 92.3518 6.81516 92.7976 7.14778C93.2505 7.47332 93.4982 7.93687 93.5407 8.53842H95.3984V8.49595C95.3984 7.4344 94.9986 6.58869 94.1989 5.95884C93.3992 5.32898 92.3235 5.01406 90.9717 5.01406C89.6483 5.01406 88.6045 5.31129 87.8402 5.90576C87.0829 6.49315 86.7043 7.28932 86.7043 8.29426C86.7043 9.17889 86.9378 9.86182 87.4049 10.3431C87.8791 10.8172 88.7177 11.1994 89.9208 11.4895L92.0545 12.0415C92.741 12.2043 93.201 12.3989 93.4346 12.6254C93.6752 12.8448 93.7955 13.1633 93.7955 13.5808C93.7955 14.1399 93.5584 14.5822 93.0842 14.9077C92.6101 15.2262 91.9625 15.3854 91.1416 15.3854C90.2499 15.3854 89.5599 15.1873 89.0716 14.791C88.5903 14.3947 88.3143 13.8108 88.2435 13.0394Z" fill="#194B7E"/>
<path d="M0 35.2168V26.1305H1.23372V35.2168H0Z" fill="#194B7E"/>
<path d="M7.74133 31.1517V35.2168H8.86401V30.9358C8.86401 30.467 8.84139 30.1257 8.79616 29.9118C8.75092 29.6939 8.6769 29.5047 8.57409 29.3443C8.38903 29.0441 8.12584 28.82 7.78451 28.672C7.44318 28.5198 7.02372 28.4437 6.52612 28.4437C6.06553 28.4437 5.66045 28.5362 5.31091 28.7213C4.96135 28.9064 4.65909 29.1901 4.40412 29.5726V28.6103H3.34312V35.2168H4.45347V31.454C4.45347 30.8083 4.62414 30.3107 4.96546 29.9612C5.31091 29.6075 5.79411 29.4307 6.41508 29.4307C6.90034 29.4307 7.24168 29.5561 7.43906 29.807C7.64057 30.0537 7.74133 30.502 7.74133 31.1517Z" fill="#194B7E"/>
<path d="M15.1866 31.1517V35.2168H16.3092V30.9358C16.3092 30.467 16.2866 30.1257 16.2414 29.9118C16.1962 29.6939 16.1221 29.5047 16.0193 29.3443C15.8343 29.0441 15.5711 28.82 15.2297 28.672C14.8884 28.5198 14.469 28.4437 13.9714 28.4437C13.5108 28.4437 13.1057 28.5362 12.7561 28.7213C12.4066 28.9064 12.1043 29.1901 11.8494 29.5726V28.6103H10.7884V35.2168H11.8987V31.454C11.8987 30.8083 12.0694 30.3107 12.4107 29.9612C12.7561 29.6075 13.2393 29.4307 13.8603 29.4307C14.3456 29.4307 14.6869 29.5561 14.8843 29.807C15.0858 30.0537 15.1866 30.502 15.1866 31.1517Z" fill="#194B7E"/>
<path fill-rule="evenodd" clip-rule="evenodd" d="M18.7209 29.3196C18.1699 29.9365 17.8943 30.7981 17.8943 31.9043C17.8943 33.0187 18.1719 33.8844 18.7271 34.5013C19.2823 35.114 20.0616 35.4204 21.065 35.4204C22.0643 35.4204 22.8395 35.112 23.3905 34.4951C23.9457 33.8782 24.2233 33.0146 24.2233 31.9043C24.2233 30.7939 23.9457 29.9324 23.3905 29.3196C22.8354 28.7028 22.0561 28.3944 21.0526 28.3944C20.0533 28.3944 19.2761 28.7028 18.7209 29.3196ZM19.5537 33.7857C19.2041 33.3498 19.0294 32.7227 19.0294 31.9043C19.0294 31.0859 19.2041 30.4608 19.5537 30.029C19.9032 29.5972 20.407 29.3813 21.065 29.3813C21.7147 29.3813 22.2123 29.5993 22.5578 30.0352C22.9032 30.467 23.0759 31.09 23.0759 31.9043C23.0759 32.7227 22.9032 33.3498 22.5578 33.7857C22.2123 34.2175 21.7147 34.4334 21.065 34.4334C20.4111 34.4334 19.9073 34.2175 19.5537 33.7857Z" fill="#194B7E"/>
<path d="M24.9941 28.6103L27.4307 35.2168H28.6089L31.0208 28.6103H29.8303L28.0291 33.9029L26.1847 28.6103H24.9941Z" fill="#194B7E"/>
<path fill-rule="evenodd" clip-rule="evenodd" d="M35.1412 35.149C35.5319 34.968 35.8999 34.6966 36.2454 34.3347V34.3717C36.2454 34.6966 36.3379 34.9392 36.523 35.0996C36.708 35.26 36.9856 35.3402 37.3557 35.3402C37.4462 35.3402 37.5408 35.332 37.6395 35.3155C37.7423 35.3032 37.8615 35.2785 37.9973 35.2415V34.3841C37.9315 34.3964 37.8739 34.4067 37.8245 34.4149C37.7793 34.419 37.7402 34.4211 37.7073 34.4211C37.547 34.4211 37.4359 34.3799 37.3742 34.2977C37.3125 34.2155 37.2817 34.0325 37.2817 33.7487V30.4423C37.2817 29.7391 37.072 29.223 36.6525 28.894C36.2372 28.5609 35.5874 28.3944 34.7032 28.3944C33.8808 28.3944 33.2351 28.5876 32.7663 28.9742C32.2975 29.3608 32.0631 29.8872 32.0631 30.5534V30.6027H33.1117C33.1117 30.1997 33.2413 29.8954 33.5004 29.6898C33.7636 29.4841 34.1522 29.3813 34.6662 29.3813C35.1638 29.3813 35.536 29.4656 35.7827 29.6342C36.0295 29.8029 36.1529 30.0558 36.1529 30.393C36.1529 30.6603 36.1323 30.8351 36.0912 30.9173C36.05 30.9954 35.9657 31.0592 35.8383 31.1085C35.7108 31.162 35.3653 31.2175 34.8019 31.2751C34.4729 31.3121 34.2118 31.3409 34.0185 31.3615C33.2577 31.4602 32.6902 31.6802 32.316 32.0215C31.9459 32.3628 31.7608 32.8337 31.7608 33.4341C31.7608 34.0551 31.95 34.5424 32.3283 34.8961C32.7067 35.2456 33.2331 35.4204 33.9075 35.4204C34.3434 35.4204 34.7546 35.3299 35.1412 35.149ZM34.6169 32.2312C35.3365 32.1408 35.8444 32.0153 36.1405 31.8549V32.8419C36.1405 33.3107 35.9493 33.6952 35.5668 33.9954C35.1844 34.2956 34.695 34.4457 34.0987 34.4457C33.7163 34.4457 33.4222 34.3573 33.2166 34.1805C33.011 34.0037 32.9082 33.7508 32.9082 33.4218C32.9082 33.0928 32.9966 32.8419 33.1734 32.6692C33.3503 32.4965 33.6402 32.3772 34.0432 32.3114C34.1707 32.2909 34.3619 32.2641 34.6169 32.2312Z" fill="#194B7E"/>
<path d="M40.6989 34.1435C40.6166 34.0448 40.5755 33.8474 40.5755 33.5513V29.4924H41.766V28.6103H40.5755V26.7659H39.4651V28.6103H38.4782V29.4924H39.4651V33.9276C39.4651 34.4416 39.57 34.7994 39.7797 35.0009C39.9895 35.2024 40.3555 35.3032 40.8777 35.3032C40.9929 35.3032 41.1224 35.295 41.2664 35.2785C41.4144 35.2621 41.581 35.2374 41.766 35.2045V34.2607C41.618 34.273 41.4967 34.2812 41.4021 34.2854C41.3116 34.2895 41.2335 34.2915 41.1677 34.2915C40.9415 34.2915 40.7852 34.2422 40.6989 34.1435Z" fill="#194B7E"/>
<path d="M43.0797 26.1305V27.3951H44.19V26.1305H43.0797Z" fill="#194B7E"/>
<path d="M43.0797 28.6103V35.2168H44.19V28.6103H43.0797Z" fill="#194B7E"/>
<path fill-rule="evenodd" clip-rule="evenodd" d="M46.6325 29.3196C46.0815 29.9365 45.806 30.7981 45.806 31.9043C45.806 33.0187 46.0835 33.8844 46.6387 34.5013C47.1939 35.114 47.9732 35.4204 48.9766 35.4204C49.9759 35.4204 50.7511 35.112 51.3022 34.4951C51.8573 33.8782 52.1349 33.0146 52.1349 31.9043C52.1349 30.7939 51.8573 29.9324 51.3022 29.3196C50.747 28.7028 49.9677 28.3944 48.9643 28.3944C47.965 28.3944 47.1877 28.7028 46.6325 29.3196ZM47.4653 33.7857C47.1157 33.3498 46.941 32.7227 46.941 31.9043C46.941 31.0859 47.1157 30.4608 47.4653 30.029C47.8149 29.5972 48.3186 29.3813 48.9766 29.3813C49.6264 29.3813 50.124 29.5993 50.4694 30.0352C50.8148 30.467 50.9876 31.09 50.9876 31.9043C50.9876 32.7227 50.8148 33.3498 50.4694 33.7857C50.124 34.2175 49.6264 34.4334 48.9766 34.4334C48.3227 34.4334 47.819 34.2175 47.4653 33.7857Z" fill="#194B7E"/>
<path d="M58.1367 31.1517V35.2168H59.2594V30.9358C59.2594 30.467 59.2368 30.1257 59.1915 29.9118C59.1463 29.6939 59.0723 29.5047 58.9695 29.3443C58.7844 29.0441 58.5212 28.82 58.1799 28.672C57.8386 28.5198 57.4191 28.4437 56.9215 28.4437C56.4609 28.4437 56.0558 28.5362 55.7063 28.7213C55.3567 28.9064 55.0545 29.1901 54.7995 29.5726V28.6103H53.7385V35.2168H54.8489V31.454C54.8489 30.8083 55.0195 30.3107 55.3608 29.9612C55.7063 29.6075 56.1895 29.4307 56.8105 29.4307C57.2957 29.4307 57.6371 29.5561 57.8344 29.807C58.036 30.0537 58.1367 30.502 58.1367 31.1517Z" fill="#194B7E"/>
<path d="M65.4031 26.1305V27.3951H66.5135V26.1305H65.4031Z" fill="#194B7E"/>
<path d="M65.4031 28.6103V35.2168H66.5135V28.6103H65.4031Z" fill="#194B7E"/>
<path d="M72.8669 31.1517V35.2168H73.9896V30.9358C73.9896 30.467 73.9669 30.1257 73.9217 29.9118C73.8765 29.6939 73.8025 29.5047 73.6996 29.3443C73.5146 29.0441 73.2514 28.82 72.9101 28.672C72.5688 28.5198 72.1493 28.4437 71.6517 28.4437C71.1911 28.4437 70.786 28.5362 70.4365 28.7213C70.0869 28.9064 69.7847 29.1901 69.5297 29.5726V28.6103H68.4687V35.2168H69.579V31.454C69.579 30.8083 69.7497 30.3107 70.091 29.9612C70.4365 29.6075 70.9197 29.4307 71.5406 29.4307C72.0259 29.4307 72.3672 29.5561 72.5646 29.807C72.7661 30.0537 72.8669 30.502 72.8669 31.1517Z" fill="#194B7E"/>
<path fill-rule="evenodd" clip-rule="evenodd" d="M85.3789 33.0825H84.2809C84.1945 33.5102 84.0033 33.8412 83.7072 34.0756C83.4152 34.3059 83.0431 34.4211 82.5907 34.4211C81.9985 34.4211 81.5359 34.2319 81.2028 33.8536C80.8697 33.4711 80.6969 32.9324 80.6846 32.2374H85.4529C85.4611 32.1757 85.4653 32.112 85.4653 32.0462C85.4694 31.9804 85.4714 31.8796 85.4714 31.7439C85.4714 30.6788 85.2103 29.8543 84.688 29.2703C84.1698 28.6863 83.4358 28.3944 82.4858 28.3944C81.5605 28.3944 80.8347 28.711 80.3083 29.3443C79.7819 29.9776 79.5187 30.8577 79.5187 31.9845C79.5187 33.0496 79.784 33.8906 80.3145 34.5074C80.845 35.1243 81.5688 35.4327 82.4858 35.4327C83.2672 35.4327 83.9149 35.223 84.4289 34.8035C84.943 34.3841 85.2596 33.8104 85.3789 33.0825ZM84.3056 31.3121H80.6784C80.7319 30.6829 80.9149 30.2038 81.2274 29.8748C81.5441 29.5458 81.9759 29.3813 82.5228 29.3813C83.0903 29.3813 83.5283 29.5499 83.8367 29.8872C84.1452 30.2203 84.3015 30.6952 84.3056 31.3121Z" fill="#194B7E"/>
<path d="M95.0448 31.1517V35.2168H96.1552V31.0592C96.1552 30.5534 96.1346 30.1833 96.0935 29.9488C96.0524 29.7144 95.9845 29.5129 95.8899 29.3443C95.7213 29.0523 95.4787 28.8303 95.162 28.6781C94.8454 28.5218 94.4732 28.4437 94.0455 28.4437C93.6014 28.4437 93.2086 28.528 92.8673 28.6966C92.526 28.8611 92.2114 29.1223 91.9235 29.48C91.7138 29.1223 91.4629 28.8611 91.171 28.6966C90.879 28.528 90.5274 28.4437 90.1161 28.4437C89.6638 28.4437 89.269 28.5342 88.9318 28.7151C88.5945 28.8961 88.3026 29.1716 88.0558 29.5417V28.6103H86.9948V35.2168H88.1052V31.3121C88.1052 30.7199 88.2553 30.2573 88.5555 29.9242C88.8557 29.587 89.271 29.4184 89.8015 29.4184C90.2457 29.4184 90.5582 29.5417 90.7392 29.7885C90.9201 30.0311 91.0106 30.4855 91.0106 31.1517V35.2168H92.1394V31.3121C92.1394 30.7117 92.2875 30.247 92.5836 29.918C92.8797 29.5849 93.295 29.4184 93.8296 29.4184C94.2779 29.4184 94.5925 29.5417 94.7734 29.7885C94.9544 30.0311 95.0448 30.4855 95.0448 31.1517Z" fill="#194B7E"/>
<path fill-rule="evenodd" clip-rule="evenodd" d="M98.1165 26.1305V35.2168H99.2022V34.3841C99.4777 34.7377 99.7882 34.9989 100.134 35.1675C100.483 35.3361 100.89 35.4204 101.355 35.4204C102.235 35.4204 102.936 35.1058 103.459 34.4766C103.985 33.8433 104.248 32.9961 104.248 31.9351C104.248 30.8577 103.983 29.9982 103.452 29.3567C102.922 28.7151 102.219 28.3944 101.343 28.3944C100.89 28.3944 100.483 28.491 100.121 28.6843C99.7635 28.8735 99.4572 29.1552 99.2022 29.5294V26.1305H98.1165ZM99.671 33.7672C99.3338 33.3231 99.1652 32.6898 99.1652 31.8673C99.1652 31.0448 99.3276 30.4279 99.6525 30.0167C99.9815 29.6013 100.473 29.3937 101.127 29.3937C101.752 29.3937 102.233 29.6219 102.57 30.0784C102.912 30.5308 103.082 31.1743 103.082 32.0092C103.082 32.7617 102.905 33.3539 102.552 33.7857C102.202 34.2175 101.723 34.4334 101.114 34.4334C100.489 34.4334 100.008 34.2113 99.671 33.7672Z" fill="#194B7E"/>
<path fill-rule="evenodd" clip-rule="evenodd" d="M111.403 33.0825H110.305C110.219 33.5102 110.028 33.8412 109.732 34.0756C109.44 34.3059 109.068 34.4211 108.615 34.4211C108.023 34.4211 107.56 34.2319 107.227 33.8536C106.894 33.4711 106.721 32.9324 106.709 32.2374H111.477C111.486 32.1757 111.49 32.112 111.49 32.0462C111.494 31.9804 111.496 31.8796 111.496 31.7439C111.496 30.6788 111.235 29.8543 110.713 29.2703C110.194 28.6863 109.46 28.3944 108.51 28.3944C107.585 28.3944 106.859 28.711 106.333 29.3443C105.806 29.9776 105.543 30.8577 105.543 31.9845C105.543 33.0496 105.809 33.8906 106.339 34.5074C106.87 35.1243 107.593 35.4327 108.51 35.4327C109.292 35.4327 109.939 35.223 110.453 34.8035C110.968 34.3841 111.284 33.8104 111.403 33.0825ZM110.33 31.3121H106.703C106.756 30.6829 106.939 30.2038 107.252 29.8748C107.569 29.5458 108 29.3813 108.547 29.3813C109.115 29.3813 109.553 29.5499 109.861 29.8872C110.17 30.2203 110.326 30.6952 110.33 31.3121Z" fill="#194B7E"/>
<path fill-rule="evenodd" clip-rule="evenodd" d="M118.793 35.2168V26.1305H117.72V29.4184C117.461 29.077 117.152 28.8221 116.795 28.6534C116.441 28.4807 116.034 28.3944 115.573 28.3944C114.697 28.3944 113.996 28.7151 113.47 29.3567C112.943 29.9941 112.68 30.8536 112.68 31.9351C112.68 32.9961 112.941 33.8433 113.463 34.4766C113.99 35.1058 114.693 35.4204 115.573 35.4204C116.005 35.4204 116.4 35.334 116.758 35.1613C117.115 34.9886 117.436 34.7295 117.72 34.3841V35.2168H118.793ZM117.257 30.0167C117.59 30.4321 117.757 31.0489 117.757 31.8673C117.757 32.6898 117.586 33.3231 117.245 33.7672C116.904 34.2113 116.422 34.4334 115.801 34.4334C115.189 34.4334 114.705 34.2175 114.352 33.7857C114.002 33.3539 113.827 32.7617 113.827 32.0092C113.827 31.1743 113.998 30.5308 114.339 30.0784C114.681 29.6219 115.164 29.3937 115.789 29.3937C116.439 29.3937 116.928 29.6013 117.257 30.0167Z" fill="#194B7E"/>
<path fill-rule="evenodd" clip-rule="evenodd" d="M126.559 35.2168V26.1305H125.486V29.4184C125.227 29.077 124.918 28.8221 124.561 28.6534C124.207 28.4807 123.8 28.3944 123.339 28.3944C122.463 28.3944 121.762 28.7151 121.236 29.3567C120.709 29.9941 120.446 30.8536 120.446 31.9351C120.446 32.9961 120.707 33.8433 121.229 34.4766C121.756 35.1058 122.459 35.4204 123.339 35.4204C123.771 35.4204 124.166 35.334 124.524 35.1613C124.881 34.9886 125.202 34.7295 125.486 34.3841V35.2168H126.559ZM125.023 30.0167C125.356 30.4321 125.523 31.0489 125.523 31.8673C125.523 32.6898 125.352 33.3231 125.011 33.7672C124.67 34.2113 124.188 34.4334 123.567 34.4334C122.955 34.4334 122.471 34.2175 122.118 33.7857C121.768 33.3539 121.593 32.7617 121.593 32.0092C121.593 31.1743 121.764 30.5308 122.105 30.0784C122.447 29.6219 122.93 29.3937 123.555 29.3937C124.205 29.3937 124.694 29.6013 125.023 30.0167Z" fill="#194B7E"/>
<path fill-rule="evenodd" clip-rule="evenodd" d="M134.097 33.0825H132.999C132.913 33.5102 132.721 33.8412 132.425 34.0756C132.133 34.3059 131.761 34.4211 131.309 34.4211C130.717 34.4211 130.254 34.2319 129.921 33.8536C129.588 33.4711 129.415 32.9324 129.403 32.2374H134.171C134.179 32.1757 134.183 32.112 134.183 32.0462C134.187 31.9804 134.189 31.8796 134.189 31.7439C134.189 30.6788 133.928 29.8543 133.406 29.2703C132.888 28.6863 132.154 28.3944 131.204 28.3944C130.279 28.3944 129.553 28.711 129.026 29.3443C128.5 29.9776 128.237 30.8577 128.237 31.9845C128.237 33.0496 128.502 33.8906 129.033 34.5074C129.563 35.1243 130.287 35.4327 131.204 35.4327C131.985 35.4327 132.633 35.223 133.147 34.8035C133.661 34.3841 133.978 33.8104 134.097 33.0825ZM133.024 31.3121H129.396C129.45 30.6829 129.633 30.2038 129.945 29.8748C130.262 29.5458 130.694 29.3813 131.241 29.3813C131.808 29.3813 132.246 29.5499 132.555 29.8872C132.863 30.2203 133.02 30.6952 133.024 31.3121Z" fill="#194B7E"/>
<path fill-rule="evenodd" clip-rule="evenodd" d="M141.487 35.2168V26.1305H140.413V29.4184C140.154 29.077 139.846 28.8221 139.488 28.6534C139.134 28.4807 138.727 28.3944 138.267 28.3944C137.391 28.3944 136.69 28.7151 136.163 29.3567C135.637 29.9941 135.374 30.8536 135.374 31.9351C135.374 32.9961 135.635 33.8433 136.157 34.4766C136.683 35.1058 137.387 35.4204 138.267 35.4204C138.698 35.4204 139.093 35.334 139.451 35.1613C139.809 34.9886 140.13 34.7295 140.413 34.3841V35.2168H141.487ZM139.951 30.0167C140.284 30.4321 140.45 31.0489 140.45 31.8673C140.45 32.6898 140.28 33.3231 139.938 33.7672C139.597 34.2113 139.116 34.4334 138.495 34.4334C137.882 34.4334 137.399 34.2175 137.045 33.7857C136.696 33.3539 136.521 32.7617 136.521 32.0092C136.521 31.1743 136.692 30.5308 137.033 30.0784C137.374 29.6219 137.858 29.3937 138.483 29.3937C139.132 29.3937 139.622 29.6013 139.951 30.0167Z" fill="#194B7E"/>
<path d="M148.915 33.0702H147.848C147.86 33.8309 148.093 34.4128 148.545 34.8159C149.002 35.2189 149.653 35.4204 150.501 35.4204C151.368 35.4204 152.043 35.2312 152.524 34.8529C153.009 34.4704 153.252 33.9358 153.252 33.249C153.252 32.7268 153.108 32.3258 152.82 32.0462C152.532 31.7624 152.006 31.5301 151.241 31.3491L150.167 31.0962C149.769 31.0057 149.495 30.9009 149.347 30.7816C149.203 30.6582 149.131 30.4896 149.131 30.2758C149.131 29.9756 149.246 29.7473 149.477 29.5911C149.711 29.4348 150.052 29.3567 150.501 29.3567C150.949 29.3567 151.302 29.4533 151.562 29.6466C151.825 29.8358 151.969 30.1051 151.993 30.4547H153.073V30.43C153.073 29.8131 152.841 29.3217 152.376 28.9557C151.911 28.5897 151.286 28.4067 150.501 28.4067C149.732 28.4067 149.125 28.5794 148.681 28.9249C148.241 29.2662 148.021 29.7288 148.021 30.3128C148.021 30.8268 148.156 31.2237 148.428 31.5033C148.703 31.7789 149.191 32.0009 149.89 32.1695L151.13 32.4903C151.529 32.5849 151.796 32.698 151.932 32.8296C152.071 32.9571 152.141 33.1421 152.141 33.3848C152.141 33.7096 152.004 33.9667 151.728 34.1558C151.453 34.3409 151.076 34.4334 150.599 34.4334C150.081 34.4334 149.68 34.3183 149.396 34.088C149.117 33.8577 148.956 33.5184 148.915 33.0702Z" fill="#194B7E"/>
<path d="M160.241 28.6103H159.001L157.169 33.9523L155.336 28.6103H154.097L156.601 35.5931L156.311 36.3765C156.241 36.5657 156.14 36.7034 156.009 36.7898C155.877 36.8762 155.705 36.9193 155.491 36.9193C155.384 36.9193 155.277 36.9111 155.17 36.8947C155.063 36.8782 154.954 36.8535 154.843 36.8207V37.8816C154.954 37.9145 155.063 37.9392 155.17 37.9557C155.281 37.9762 155.392 37.9865 155.503 37.9865C156.009 37.9865 156.395 37.8755 156.663 37.6534C156.93 37.4313 157.195 36.9605 157.458 36.2408L160.241 28.6103Z" fill="#194B7E"/>
<path d="M162.091 33.0702H161.024C161.036 33.8309 161.268 34.4128 161.721 34.8159C162.177 35.2189 162.829 35.4204 163.676 35.4204C164.544 35.4204 165.218 35.2312 165.699 34.8529C166.185 34.4704 166.427 33.9358 166.427 33.249C166.427 32.7268 166.283 32.3258 165.996 32.0462C165.708 31.7624 165.181 31.5301 164.416 31.3491L163.343 31.0962C162.944 31.0057 162.671 30.9009 162.523 30.7816C162.379 30.6582 162.307 30.4896 162.307 30.2758C162.307 29.9756 162.422 29.7473 162.652 29.5911C162.887 29.4348 163.228 29.3567 163.676 29.3567C164.124 29.3567 164.478 29.4533 164.737 29.6466C165 29.8358 165.144 30.1051 165.169 30.4547H166.248V30.43C166.248 29.8131 166.016 29.3217 165.551 28.9557C165.087 28.5897 164.462 28.4067 163.676 28.4067C162.907 28.4067 162.301 28.5794 161.856 28.9249C161.416 29.2662 161.196 29.7288 161.196 30.3128C161.196 30.8268 161.332 31.2237 161.604 31.5033C161.879 31.7789 162.366 32.0009 163.065 32.1695L164.305 32.4903C164.704 32.5849 164.972 32.698 165.107 32.8296C165.247 32.9571 165.317 33.1421 165.317 33.3848C165.317 33.7096 165.179 33.9667 164.904 34.1558C164.628 34.3409 164.252 34.4334 163.775 34.4334C163.257 34.4334 162.856 34.3183 162.572 34.088C162.292 33.8577 162.132 33.5184 162.091 33.0702Z" fill="#194B7E"/>
<path d="M169.419 34.1435C169.337 34.0448 169.296 33.8474 169.296 33.5513V29.4924H170.486V28.6103H169.296V26.7659H168.185V28.6103H167.198V29.4924H168.185V33.9276C168.185 34.4416 168.29 34.7994 168.5 35.0009C168.709 35.2024 169.076 35.3032 169.598 35.3032C169.713 35.3032 169.842 35.295 169.986 35.2785C170.134 35.2621 170.301 35.2374 170.486 35.2045V34.2607C170.338 34.273 170.217 34.2812 170.122 34.2854C170.032 34.2895 169.954 34.2915 169.888 34.2915C169.662 34.2915 169.505 34.2422 169.419 34.1435Z" fill="#194B7E"/>
<path fill-rule="evenodd" clip-rule="evenodd" d="M177.345 33.0825H176.247C176.161 33.5102 175.97 33.8412 175.674 34.0756C175.382 34.3059 175.009 34.4211 174.557 34.4211C173.965 34.4211 173.502 34.2319 173.169 33.8536C172.836 33.4711 172.663 32.9324 172.651 32.2374H177.419C177.428 32.1757 177.432 32.112 177.432 32.0462C177.436 31.9804 177.438 31.8796 177.438 31.7439C177.438 30.6788 177.177 29.8543 176.654 29.2703C176.136 28.6863 175.402 28.3944 174.452 28.3944C173.527 28.3944 172.801 28.711 172.275 29.3443C171.748 29.9776 171.485 30.8577 171.485 31.9845C171.485 33.0496 171.75 33.8906 172.281 34.5074C172.811 35.1243 173.535 35.4327 174.452 35.4327C175.234 35.4327 175.881 35.223 176.395 34.8035C176.909 34.3841 177.226 33.8104 177.345 33.0825ZM176.272 31.3121H172.645C172.698 30.6829 172.881 30.2038 173.194 29.8748C173.51 29.5458 173.942 29.3813 174.489 29.3813C175.057 29.3813 175.495 29.5499 175.803 29.8872C176.112 30.2203 176.268 30.6952 176.272 31.3121Z" fill="#194B7E"/>
<path d="M187.011 31.1517V35.2168H188.122V31.0592C188.122 30.5534 188.101 30.1833 188.06 29.9488C188.019 29.7144 187.951 29.5129 187.856 29.3443C187.688 29.0523 187.445 28.8303 187.128 28.6781C186.812 28.5218 186.44 28.4437 186.012 28.4437C185.568 28.4437 185.175 28.528 184.834 28.6966C184.492 28.8611 184.178 29.1223 183.89 29.48C183.68 29.1223 183.429 28.8611 183.137 28.6966C182.845 28.528 182.494 28.4437 182.082 28.4437C181.63 28.4437 181.235 28.5342 180.898 28.7151C180.561 28.8961 180.269 29.1716 180.022 29.5417V28.6103H178.961V35.2168H180.072V31.3121C180.072 30.7199 180.222 30.2573 180.522 29.9242C180.822 29.587 181.237 29.4184 181.768 29.4184C182.212 29.4184 182.525 29.5417 182.706 29.7885C182.886 30.0311 182.977 30.4855 182.977 31.1517V35.2168H184.106V31.3121C184.106 30.7117 184.254 30.247 184.55 29.918C184.846 29.5849 185.261 29.4184 185.796 29.4184C186.244 29.4184 186.559 29.5417 186.74 29.7885C186.921 30.0311 187.011 30.4855 187.011 31.1517Z" fill="#194B7E"/>
<path d="M190.675 33.0702H189.608C189.62 33.8309 189.853 34.4128 190.305 34.8159C190.761 35.2189 191.413 35.4204 192.26 35.4204C193.128 35.4204 193.803 35.2312 194.284 34.8529C194.769 34.4704 195.012 33.9358 195.012 33.249C195.012 32.7268 194.868 32.3258 194.58 32.0462C194.292 31.7624 193.766 31.5301 193.001 31.3491L191.927 31.0962C191.528 31.0057 191.255 30.9009 191.107 30.7816C190.963 30.6582 190.891 30.4896 190.891 30.2758C190.891 29.9756 191.006 29.7473 191.236 29.5911C191.471 29.4348 191.812 29.3567 192.26 29.3567C192.709 29.3567 193.062 29.4533 193.321 29.6466C193.585 29.8358 193.729 30.1051 193.753 30.4547H194.833V30.43C194.833 29.8131 194.6 29.3217 194.136 28.9557C193.671 28.5897 193.046 28.4067 192.26 28.4067C191.491 28.4067 190.885 28.5794 190.441 28.9249C190.001 29.2662 189.781 29.7288 189.781 30.3128C189.781 30.8268 189.916 31.2237 190.188 31.5033C190.463 31.7789 190.951 32.0009 191.65 32.1695L192.89 32.4903C193.289 32.5849 193.556 32.698 193.692 32.8296C193.831 32.9571 193.901 33.1421 193.901 33.3848C193.901 33.7096 193.763 33.9667 193.488 34.1558C193.212 34.3409 192.836 34.4334 192.359 34.4334C191.841 34.4334 191.44 34.3183 191.156 34.088C190.877 33.8577 190.716 33.5184 190.675 33.0702Z" fill="#194B7E"/>
</svg>
