<svg width="195" height="40" viewBox="0 0 195 40" fill="none" xmlns="http://www.w3.org/2000/svg">
<g clip-path="url(#clip0_1993_10666)">
<path d="M66.7016 10.8915H64.6528C64.7307 12.682 65.2968 14.0585 66.3513 15.021C67.4129 15.9764 68.892 16.4541 70.7886 16.4541C72.6286 16.4541 74.0865 16.0082 75.1622 15.1165C76.245 14.2248 76.7864 13.0252 76.7864 11.5178C76.7864 10.895 76.6767 10.3324 76.4573 9.83004C76.2379 9.32044 75.9195 8.88874 75.5019 8.53494C74.9499 8.06784 73.8317 7.63254 72.1474 7.22914C72.0412 7.20084 71.9669 7.18314 71.9245 7.17614L71.0434 6.96384C68.4673 6.36934 67.1793 5.46704 67.1793 4.25684C67.1793 3.49959 67.4907 2.8945 68.1135 2.44157C68.7363 1.98157 69.5678 1.75156 70.6081 1.75156C71.7192 1.75156 72.5932 2.0311 73.2302 2.59019C73.8742 3.14928 74.2316 3.95254 74.3024 4.99994L76.3299 4.98934L76.3296 4.96124L80.5353 16.6876L80.0365 18.0358C79.9161 18.3613 79.7428 18.5984 79.5163 18.747C79.2898 18.8956 78.9926 18.9699 78.6246 18.9699C78.4406 18.9699 78.2566 18.9558 78.0726 18.9275C77.8886 18.8992 77.701 18.8567 77.51 18.8001V20.626C77.701 20.6826 77.8886 20.725 78.0726 20.7534C78.2637 20.7887 78.4547 20.8064 78.6458 20.8064C79.5163 20.8064 80.1815 20.6154 80.6413 20.2332C81.1013 19.851 81.5583 19.0407 82.0113 17.8022L86.7983 4.67084H84.6653L81.5123 13.8639L78.3592 4.67084H76.3199C76.2435 3.27177 75.7444 2.16068 74.8225 1.33756C73.8317 0.44585 72.4729 0 70.7461 0C69.0547 0 67.6995 0.42462 66.6804 1.27386C65.6613 2.11603 65.1518 3.2342 65.1518 4.62834C65.1518 5.76774 65.4914 6.64884 66.1708 7.27164C66.8573 7.88734 68.2621 8.44644 70.3852 8.94894C70.4701 8.97014 70.5904 8.99844 70.7461 9.03384C73.3646 9.65664 74.6739 10.566 74.6739 11.762C74.6739 12.6395 74.3236 13.3331 73.623 13.8426C72.9294 14.3522 71.9776 14.607 70.7674 14.607C69.543 14.607 68.5629 14.2708 67.8269 13.5985C67.0979 12.9262 66.7229 12.0238 66.7016 10.8915Z" fill="#194B7E"/>
<path d="M0 16.0978V0.410156H4.7713L7.8918 12.349L10.9697 0.410156H15.7623V16.0978H12.7376V3.44547L9.5532 16.0978H6.2516L3.0246 3.44547V16.0978H0Z" fill="#194B7E"/>
<path d="M18.1646 0.410156V3.23246H21.2638V0.410156H18.1646Z" fill="#194B7E"/>
<path d="M18.1646 4.52148V16.0983H21.2638V4.52148H18.1646Z" fill="#194B7E"/>
<path d="M29.9609 0.410156V16.0979H32.9749V12.4342L34.1464 11.1668L36.9154 16.0979H40.6323L36.351 8.8132L40.3874 4.5211H36.6598L32.9749 8.6427V0.410156H29.9609Z" fill="#194B7E"/>
<path fill-rule="evenodd" clip-rule="evenodd" d="M39.8828 10.2932C39.8828 8.36907 40.4047 6.85677 41.4484 5.75617C42.4921 4.65567 43.9264 4.10547 45.7511 4.10547C47.5687 4.10547 48.9994 4.65567 50.0431 5.75617C51.0939 6.85677 51.6193 8.36907 51.6193 10.2932C51.6193 12.2244 51.0939 13.7403 50.0431 14.8408C48.9994 15.9414 47.5687 16.4916 45.7511 16.4916C43.9264 16.4916 42.4921 15.9414 41.4484 14.8408C40.4047 13.7403 39.8828 12.2244 39.8828 10.2932ZM43.0247 10.2932C43.0247 11.4434 43.259 12.3309 43.7276 12.9558C44.2033 13.5806 44.8778 13.893 45.7511 13.893C46.6102 13.893 47.2741 13.5806 47.7427 12.9558C48.2184 12.3309 48.4562 11.4434 48.4562 10.2932C48.4562 9.15007 48.2219 8.26967 47.7533 7.65197C47.2847 7.02717 46.6173 6.71477 45.7511 6.71477C44.8778 6.71477 44.2033 7.02717 43.7276 7.65197C43.259 8.26967 43.0247 9.15007 43.0247 10.2932Z" fill="#194B7E"/>
<path d="M55.0661 16.0983L50.9019 4.52148H54.3312L56.7062 12.8287L59.1025 4.52148H62.3721L58.2291 16.0983H55.0661Z" fill="#194B7E"/>
<path d="M28.5332 16.1825C28.2492 16.1896 27.9084 16.2002 27.5108 16.2144C27.1203 16.2357 26.8718 16.2464 26.7653 16.2464C25.5796 16.2464 24.7666 16.0263 24.3264 15.586C23.8933 15.1387 23.6768 14.2619 23.6768 12.9555V6.69312H22.1431V4.52052H23.6768V1.35742H26.744V4.52052H28.5332V6.69312H26.744V13.1046C26.744 13.4099 26.8115 13.6122 26.9464 13.7116C27.0813 13.8039 27.3582 13.8501 27.7771 13.8501H28.5332V16.1825Z" fill="#194B7E"/>
<path d="M184.158 0.832031V15.5392H185.506V8.42032H193.913V15.5392H195.281V0.832031H193.913V7.21212H185.506V0.832031H184.158Z" fill="#194B7E"/>
<path fill-rule="evenodd" clip-rule="evenodd" d="M173.314 15.5392V0.832031H174.542V6.81272C174.942 6.09392 175.451 5.55472 176.07 5.19532C176.689 4.83582 177.421 4.65612 178.266 4.65612C179.717 4.65612 180.862 5.15532 181.701 6.15382C182.546 7.15222 182.969 8.51682 182.969 10.2474C182.969 11.9714 182.54 13.3327 181.681 14.3311C180.829 15.3296 179.664 15.8288 178.187 15.8288C177.368 15.8288 176.646 15.6491 176.02 15.2896C175.401 14.9235 174.908 14.3943 174.542 13.7021V15.5392H173.314ZM174.482 10.2474C174.482 11.6586 174.798 12.7602 175.431 13.5523C176.07 14.3444 176.952 14.7405 178.077 14.7405C179.228 14.7405 180.114 14.3544 180.733 13.5823C181.352 12.8035 181.661 11.6919 181.661 10.2474C181.661 8.80972 181.348 7.70142 180.723 6.92262C180.104 6.13712 179.222 5.74442 178.077 5.74442C176.925 5.74442 176.037 6.13382 175.411 6.91262C174.792 7.69142 174.482 8.80302 174.482 10.2474Z" fill="#194B7E"/>
<path d="M157.487 4.92585V15.5393H158.715V8.97955C158.715 8.02105 159.002 7.24555 159.574 6.65315C160.153 6.06075 160.909 5.76455 161.841 5.76455C162.599 5.76455 163.162 5.97755 163.528 6.40355C163.894 6.82955 164.077 7.48185 164.077 8.36055V15.5393H165.305V8.88965C165.305 7.95115 165.588 7.19235 166.154 6.61325C166.72 6.03415 167.472 5.74455 168.41 5.74455C169.203 5.74455 169.772 5.93755 170.118 6.32365C170.464 6.70975 170.637 7.34875 170.637 8.24065V15.5393H171.885V8.14085C171.885 6.96935 171.599 6.09735 171.026 5.52485C170.461 4.94575 169.602 4.65625 168.45 4.65625C167.692 4.65625 167.019 4.83595 166.434 5.19545C165.854 5.54815 165.388 6.06405 165.036 6.74305C164.863 6.07735 164.513 5.56485 163.987 5.20535C163.461 4.83925 162.802 4.65625 162.01 4.65625C161.272 4.65625 160.613 4.83265 160.033 5.18545C159.461 5.53155 158.995 6.03075 158.636 6.68305V4.92585H157.487Z" fill="#194B7E"/>
<path d="M154.91 15.5397L154.77 12.9438C154.318 13.889 153.639 14.6278 152.734 15.1603C151.835 15.6862 150.803 15.9491 149.638 15.9491C147.595 15.9491 145.984 15.2535 144.806 13.8623C143.634 12.4712 143.049 10.5708 143.049 8.16123C143.049 5.77153 143.648 3.89114 144.846 2.51993C146.044 1.14207 147.668 0.453125 149.718 0.453125C151.429 0.453125 152.817 0.862495 153.882 1.68122C154.953 2.49331 155.596 3.6382 155.809 5.11594H154.421C154.215 4.03094 153.695 3.17891 152.863 2.55986C152.031 1.94082 150.99 1.6313 149.738 1.6313C148.041 1.6313 146.729 2.19709 145.804 3.32868C144.886 4.45364 144.426 6.05784 144.426 8.14124C144.426 10.1581 144.889 11.7556 145.814 12.9338C146.739 14.1119 147.994 14.701 149.578 14.701C151.196 14.701 152.454 14.2251 153.353 13.2732C154.258 12.3214 154.71 10.9835 154.71 9.25953V9.19963H149.858V7.99144H155.998V15.5397H154.91Z" fill="#194B7E"/>
<path d="M132.216 12.3456H130.38C130.401 13.6549 130.801 14.6563 131.579 15.3498C132.365 16.0434 133.487 16.3902 134.944 16.3902C136.438 16.3902 137.598 16.0646 138.426 15.4135C139.261 14.7554 139.679 13.8354 139.679 12.6535C139.679 11.7547 139.431 11.0647 138.936 10.5835C138.44 10.0951 137.535 9.69531 136.218 9.38391L134.371 8.94871C133.685 8.79301 133.214 8.61251 132.959 8.40731C132.712 8.19501 132.588 7.90481 132.588 7.53681C132.588 7.02021 132.786 6.62741 133.182 6.35851C133.586 6.08951 134.173 5.95511 134.944 5.95511C135.716 5.95511 136.324 6.12141 136.77 6.45401C137.223 6.77961 137.471 7.24311 137.513 7.84461H139.371V7.80221C139.371 6.74061 138.971 5.89491 138.172 5.26511C137.372 4.63521 136.296 4.32031 134.944 4.32031C133.621 4.32031 132.577 4.61751 131.813 5.21201C131.056 5.79941 130.677 6.59551 130.677 7.60051C130.677 8.48511 130.911 9.16811 131.378 9.64931C131.852 10.1234 132.69 10.5056 133.893 10.7958L136.027 11.3478C136.714 11.5105 137.174 11.7052 137.407 11.9316C137.648 12.151 137.768 12.4695 137.768 12.887C137.768 13.4461 137.531 13.8884 137.057 14.214C136.583 14.5324 135.935 14.6917 135.114 14.6917C134.223 14.6917 133.533 14.4935 133.044 14.0972C132.563 13.7009 132.287 13.117 132.216 12.3456Z" fill="#194B7E"/>
<path d="M126.999 16.0406V9.04497C126.999 7.89847 126.843 7.11646 126.532 6.69897C126.221 6.27427 125.679 6.06196 124.908 6.06196C123.988 6.06196 123.273 6.34867 122.763 6.92187C122.254 7.48807 121.999 8.28777 121.999 9.32097V16.0406H120.056V9.04497C120.056 7.89847 119.901 7.11646 119.589 6.69897C119.278 6.27427 118.74 6.06196 117.976 6.06196C117.063 6.06196 116.348 6.35217 115.831 6.93247C115.314 7.50567 115.057 8.30187 115.057 9.32097V16.0406H113.146V4.67137H114.972V6.27427C115.396 5.63737 115.899 5.16327 116.479 4.85187C117.059 4.54047 117.739 4.38477 118.517 4.38477C119.225 4.38477 119.83 4.52987 120.332 4.81997C120.835 5.10307 121.267 5.55247 121.628 6.16817C122.123 5.55247 122.664 5.10307 123.252 4.81997C123.839 4.52987 124.514 4.38477 125.279 4.38477C126.014 4.38477 126.656 4.51917 127.201 4.78817C127.746 5.04996 128.163 5.43217 128.453 5.93457C128.616 6.22477 128.733 6.57156 128.804 6.97497C128.874 7.37837 128.91 8.01527 128.91 8.88577V16.0406H126.999Z" fill="#194B7E"/>
<path fill-rule="evenodd" clip-rule="evenodd" d="M111.451 12.3666H109.561C109.413 13.1026 109.084 13.6723 108.574 14.0757C108.072 14.472 107.431 14.6701 106.653 14.6701C105.634 14.6701 104.837 14.3446 104.264 13.6935C103.691 13.0353 103.394 12.1083 103.373 10.9122H111.578C111.592 10.8061 111.6 10.6964 111.6 10.5832C111.607 10.4699 111.61 10.2965 111.61 10.063C111.61 8.23003 111.161 6.81113 110.262 5.80623C109.37 4.80123 108.107 4.29883 106.472 4.29883C104.88 4.29883 103.631 4.84373 102.725 5.93353C101.819 7.02343 101.366 8.53793 101.366 10.477C101.366 12.31 101.823 13.7572 102.736 14.8188C103.649 15.8803 104.894 16.4111 106.472 16.4111C107.817 16.4111 108.932 16.0502 109.816 15.3283C110.701 14.6064 111.246 13.6192 111.451 12.3666ZM109.604 9.31993H103.362C103.454 8.23713 103.769 7.41263 104.307 6.84653C104.852 6.28033 105.595 5.99723 106.536 5.99723C107.513 5.99723 108.266 6.28743 108.797 6.86773C109.328 7.44103 109.597 8.25843 109.604 9.31993Z" fill="#194B7E"/>
<path d="M99.3375 13.1732C99.3375 13.6827 99.4085 14.0224 99.5505 14.1922C99.6985 14.3621 99.9675 14.447 100.357 14.447C100.471 14.447 100.605 14.4435 100.761 14.4364C100.924 14.4293 101.132 14.4152 101.387 14.3939V16.0181C101.069 16.0747 100.782 16.1172 100.527 16.1455C100.28 16.1738 100.057 16.188 99.8585 16.188C98.9595 16.188 98.3295 16.0146 97.9685 15.6678C97.6075 15.321 97.4275 14.7053 97.4275 13.8207V6.18814H95.7285V4.67014H97.4275V1.49609H99.3375V4.67014H101.387V6.18814H99.3375V13.1732Z" fill="#194B7E"/>
<path d="M88.2432 12.3456H86.4072C86.4282 13.6549 86.8282 14.6563 87.6062 15.3498C88.3922 16.0434 89.5142 16.3902 90.9712 16.3902C92.4652 16.3902 93.6252 16.0646 94.4532 15.4135C95.2882 14.7554 95.7062 13.8354 95.7062 12.6535C95.7062 11.7547 95.4582 11.0647 94.9632 10.5835C94.4672 10.0951 93.5622 9.69531 92.2452 9.38391L90.3982 8.94871C89.7122 8.79301 89.2412 8.61251 88.9862 8.40731C88.7392 8.19501 88.6152 7.90481 88.6152 7.53681C88.6152 7.02021 88.8132 6.62741 89.2092 6.35851C89.6132 6.08951 90.2002 5.95511 90.9712 5.95511C91.7432 5.95511 92.3512 6.12141 92.7972 6.45401C93.2502 6.77961 93.4982 7.24311 93.5402 7.84461H95.3982V7.80221C95.3982 6.74061 94.9982 5.89491 94.1992 5.26511C93.3992 4.63521 92.3232 4.32031 90.9712 4.32031C89.6482 4.32031 88.6042 4.61751 87.8402 5.21201C87.0832 5.79941 86.7042 6.59551 86.7042 7.60051C86.7042 8.48511 86.9382 9.16811 87.4052 9.64931C87.8792 10.1234 88.7172 10.5056 89.9202 10.7958L92.0542 11.3478C92.7412 11.5105 93.2012 11.7052 93.4342 11.9316C93.6752 12.151 93.7952 12.4695 93.7952 12.887C93.7952 13.4461 93.5582 13.8884 93.0842 14.214C92.6102 14.5324 91.9622 14.6917 91.1412 14.6917C90.2502 14.6917 89.5602 14.4935 89.0712 14.0972C88.5902 13.7009 88.3142 13.117 88.2432 12.3456Z" fill="#194B7E"/>
<path fill-rule="evenodd" clip-rule="evenodd" d="M194.22 26.4473V36.324H193.053V35.4188C192.745 35.7943 192.396 36.0759 192.007 36.2636C191.618 36.4514 191.189 36.5453 190.72 36.5453C189.763 36.5453 188.999 36.2033 188.427 35.5194C187.859 34.831 187.575 33.9101 187.575 32.7569C187.575 31.5812 187.861 30.647 188.433 29.9541C189.006 29.2568 189.768 28.9081 190.72 28.9081C191.22 28.9081 191.663 29.002 192.047 29.1897C192.436 29.373 192.772 29.6501 193.053 30.0212V26.4473H194.22ZM193.093 32.6831C193.093 31.7936 192.912 31.123 192.55 30.6716C192.193 30.2201 191.661 29.9943 190.955 29.9943C190.275 29.9943 189.75 30.2424 189.379 30.7386C189.008 31.2303 188.822 31.9299 188.822 32.8373C188.822 33.6553 189.012 34.299 189.392 34.7684C189.777 35.2378 190.302 35.4724 190.968 35.4724C191.643 35.4724 192.166 35.2311 192.537 34.7483C192.908 34.2655 193.093 33.5771 193.093 32.6831Z" fill="#194B7E"/>
<path d="M183.384 29.1444V36.3256H184.591V32.3294C184.591 31.6588 184.759 31.1492 185.094 30.8006C185.434 30.4474 185.925 30.2709 186.569 30.2709C186.65 30.2709 186.71 30.2731 186.75 30.2776C186.79 30.2776 186.826 30.2798 186.857 30.2843V29.0103C186.817 29.0014 186.777 28.9969 186.737 28.9969C186.697 28.9924 186.632 28.9902 186.542 28.9902C186.064 28.9902 185.659 29.1109 185.329 29.3523C185.002 29.5892 184.743 29.949 184.551 30.4318V29.1444H183.384Z" fill="#194B7E"/>
<path fill-rule="evenodd" clip-rule="evenodd" d="M180.367 35.3652C179.992 35.7586 179.591 36.0536 179.167 36.2503C178.747 36.447 178.3 36.5453 177.826 36.5453C177.093 36.5453 176.52 36.3553 176.109 35.9754C175.698 35.591 175.492 35.0612 175.492 34.3863C175.492 33.7336 175.694 33.2218 176.096 32.8508C176.503 32.4798 177.119 32.2406 177.946 32.1333C178.157 32.111 178.44 32.0797 178.798 32.0395C179.41 31.9769 179.786 31.9165 179.924 31.8584C180.063 31.8048 180.155 31.7355 180.199 31.6506C180.244 31.5612 180.266 31.3712 180.266 31.0806C180.266 30.7141 180.132 30.4392 179.864 30.2559C179.596 30.0726 179.191 29.981 178.65 29.981C178.092 29.981 177.669 30.0927 177.383 30.3162C177.102 30.5397 176.961 30.8705 176.961 31.3086H175.821V31.255C175.821 30.5308 176.076 29.9586 176.585 29.5384C177.095 29.1183 177.797 28.9082 178.691 28.9082C179.652 28.9082 180.358 29.0892 180.81 29.4513C181.265 29.8089 181.493 30.3699 181.493 31.1343V34.7282C181.493 35.0367 181.527 35.2356 181.594 35.325C181.661 35.4144 181.782 35.4591 181.956 35.4591C181.992 35.4591 182.034 35.4568 182.084 35.4524C182.137 35.4434 182.2 35.4323 182.271 35.4189V36.3509C182.124 36.3911 181.994 36.4179 181.882 36.4313C181.775 36.4492 181.672 36.4581 181.574 36.4581C181.172 36.4581 180.87 36.371 180.669 36.1966C180.468 36.0223 180.367 35.7586 180.367 35.4054V35.3652ZM180.253 32.6697C179.931 32.8441 179.379 32.9804 178.597 33.0788C178.32 33.1145 178.112 33.1436 177.973 33.1659C177.535 33.2374 177.22 33.3671 177.028 33.5548C176.836 33.7426 176.74 34.0152 176.74 34.3728C176.74 34.7305 176.851 35.0054 177.075 35.1976C177.298 35.3898 177.618 35.4859 178.034 35.4859C178.682 35.4859 179.214 35.3227 179.629 34.9964C180.045 34.6701 180.253 34.2522 180.253 33.7426V32.6697Z" fill="#194B7E"/>
<path d="M165.099 29.1426L167.245 36.3238H168.465L169.987 30.7921L171.503 36.3238H172.723L174.909 29.1426H173.668L172.093 34.6341L170.691 29.1426H169.29L167.875 34.6341L166.353 29.1426H165.099Z" fill="#194B7E"/>
<path d="M161.364 36.3256V29.1444H162.531V30.4318C162.723 29.949 162.983 29.5892 163.309 29.3523C163.64 29.1109 164.044 28.9902 164.523 28.9902C164.612 28.9902 164.677 28.9924 164.717 28.9969C164.757 28.9969 164.797 29.0014 164.838 29.0103V30.2843C164.806 30.2798 164.771 30.2776 164.73 30.2776C164.69 30.2731 164.63 30.2709 164.549 30.2709C163.906 30.2709 163.414 30.4474 163.074 30.8006C162.739 31.1492 162.571 31.6588 162.571 32.3294V36.3256H161.364Z" fill="#194B7E"/>
<path fill-rule="evenodd" clip-rule="evenodd" d="M153.915 29.9139C153.316 30.5844 153.017 31.5209 153.017 32.7234C153.017 33.9348 153.318 34.8757 153.922 35.5462C154.525 36.2123 155.373 36.5453 156.463 36.5453C157.549 36.5453 158.392 36.2101 158.991 35.5395C159.595 34.869 159.896 33.9303 159.896 32.7234C159.896 31.5165 159.595 30.58 158.991 29.9139C158.388 29.2434 157.541 28.9082 156.45 28.9082C155.364 28.9082 154.519 29.2434 153.915 29.9139ZM154.82 34.7685C154.44 34.2946 154.251 33.6129 154.251 32.7234C154.251 31.8338 154.44 31.1544 154.82 30.685C155.2 30.2157 155.748 29.981 156.463 29.981C157.169 29.981 157.71 30.2179 158.086 30.6917C158.461 31.1611 158.649 31.8383 158.649 32.7234C158.649 33.6129 158.461 34.2946 158.086 34.7685C157.71 35.2378 157.169 35.4725 156.463 35.4725C155.752 35.4725 155.205 35.2378 154.82 34.7685Z" fill="#194B7E"/>
<path d="M145.829 36.324V26.4473H152.46V27.6878H147.17V30.6514H151.79V31.8584H147.17V36.324H145.829Z" fill="#194B7E"/>
<path d="M138.883 31.9065V36.3252H140.104V31.6718C140.104 31.1622 140.079 30.7912 140.03 30.5588C139.981 30.3219 139.9 30.1162 139.788 29.9419C139.587 29.6156 139.301 29.372 138.93 29.211C138.559 29.0456 138.103 28.9629 137.562 28.9629C137.062 28.9629 136.621 29.0635 136.241 29.2647C135.861 29.4658 135.533 29.7743 135.256 30.19V29.144H134.102V36.3252H135.309V32.2351C135.309 31.5333 135.495 30.9924 135.866 30.6124C136.241 30.228 136.767 30.0358 137.442 30.0358C137.969 30.0358 138.34 30.1721 138.555 30.4448C138.774 30.713 138.883 31.2002 138.883 31.9065Z" fill="#194B7E"/>
<path fill-rule="evenodd" clip-rule="evenodd" d="M125.753 32.7234C125.753 31.5209 126.053 30.5844 126.652 29.9139C127.255 29.2434 128.1 28.9082 129.186 28.9082C130.277 28.9082 131.124 29.2434 131.728 29.9139C132.331 30.58 132.633 31.5165 132.633 32.7234C132.633 33.9303 132.331 34.869 131.728 35.5395C131.129 36.2101 130.286 36.5453 129.2 36.5453C128.109 36.5453 127.262 36.2123 126.659 35.5462C126.055 34.8757 125.753 33.9348 125.753 32.7234ZM126.987 32.7234C126.987 33.6129 127.177 34.2946 127.557 34.7685C127.941 35.2378 128.489 35.4725 129.2 35.4725C129.906 35.4725 130.447 35.2378 130.822 34.7685C131.198 34.2946 131.386 33.6129 131.386 32.7234C131.386 31.8383 131.198 31.1611 130.822 30.6917C130.447 30.2179 129.906 29.981 129.2 29.981C128.485 29.981 127.937 30.2157 127.557 30.685C127.177 31.1544 126.987 31.8338 126.987 32.7234Z" fill="#194B7E"/>
<path d="M123.065 26.4473V27.8219H124.272V26.4473H123.065Z" fill="#194B7E"/>
<path d="M123.065 29.1428V36.324H124.272V29.1428H123.065Z" fill="#194B7E"/>
<path d="M120.617 34.5162C120.617 34.8381 120.662 35.0526 120.751 35.1599C120.845 35.2672 121.015 35.3209 121.261 35.3209C121.333 35.3209 121.417 35.3186 121.516 35.3141C121.619 35.3097 121.75 35.3007 121.911 35.2873V36.3132C121.71 36.349 121.529 36.3758 121.368 36.3937C121.212 36.4116 121.071 36.4205 120.946 36.4205C120.378 36.4205 119.98 36.311 119.752 36.0919C119.524 35.8729 119.41 35.484 119.41 34.9252V30.1043H118.338V29.1454H119.41V27.1406H120.617V29.1454H121.911V30.1043H120.617V34.5162Z" fill="#194B7E"/>
<path fill-rule="evenodd" clip-rule="evenodd" d="M114.986 36.2503C115.411 36.0536 115.811 35.7586 116.186 35.3652V35.4054C116.186 35.7586 116.287 36.0223 116.488 36.1966C116.689 36.371 116.991 36.4581 117.393 36.4581C117.492 36.4581 117.594 36.4492 117.702 36.4313C117.813 36.4179 117.943 36.3911 118.091 36.3509V35.4189C118.019 35.4323 117.957 35.4434 117.903 35.4524C117.854 35.4568 117.811 35.4591 117.775 35.4591C117.601 35.4591 117.48 35.4144 117.413 35.325C117.346 35.2356 117.313 35.0367 117.313 34.7282V31.1343C117.313 30.3699 117.085 29.8089 116.629 29.4513C116.177 29.0892 115.471 28.9082 114.51 28.9082C113.616 28.9082 112.914 29.1183 112.405 29.5384C111.895 29.9586 111.64 30.5308 111.64 31.255V31.3086H112.78C112.78 30.8705 112.921 30.5397 113.203 30.3162C113.489 30.0927 113.911 29.981 114.47 29.981C115.011 29.981 115.415 30.0726 115.683 30.2559C115.952 30.4392 116.086 30.7141 116.086 31.0806C116.086 31.3712 116.063 31.5612 116.019 31.6506C115.974 31.7355 115.882 31.8048 115.744 31.8584C115.605 31.9165 115.23 31.9769 114.617 32.0395C114.26 32.0797 113.976 32.111 113.766 32.1333C112.939 32.2406 112.322 32.4798 111.915 32.8508C111.513 33.2218 111.312 33.7336 111.312 34.3863C111.312 35.0612 111.517 35.591 111.929 35.9754C112.34 36.3553 112.912 36.5453 113.645 36.5453C114.119 36.5453 114.566 36.447 114.986 36.2503ZM114.416 33.0788C115.198 32.9804 115.751 32.8441 116.072 32.6697V33.7426C116.072 34.2522 115.865 34.6701 115.449 34.9964C115.033 35.3227 114.501 35.4859 113.853 35.4859C113.437 35.4859 113.118 35.3898 112.894 35.1976C112.671 35.0054 112.559 34.7305 112.559 34.3728C112.559 34.0152 112.655 33.7426 112.847 33.5548C113.039 33.3671 113.355 33.2374 113.793 33.1659C113.931 33.1436 114.139 33.1145 114.416 33.0788Z" fill="#194B7E"/>
<path d="M106.879 36.3238L104.23 29.1426H105.524L107.529 34.8956L109.487 29.1426H110.781L108.159 36.3238H106.879Z" fill="#194B7E"/>
<path fill-rule="evenodd" clip-rule="evenodd" d="M97.6861 29.9139C97.0871 30.5844 96.7871 31.5209 96.7871 32.7234C96.7871 33.9348 97.0891 34.8757 97.6921 35.5462C98.2961 36.2123 99.1431 36.5453 100.234 36.5453C101.32 36.5453 102.163 36.2101 102.762 35.5395C103.365 34.869 103.667 33.9303 103.667 32.7234C103.667 31.5165 103.365 30.58 102.762 29.9139C102.158 29.2434 101.311 28.9082 100.22 28.9082C99.1341 28.9082 98.2891 29.2434 97.6861 29.9139ZM98.5911 34.7685C98.2111 34.2946 98.0211 33.6129 98.0211 32.7234C98.0211 31.8338 98.2111 31.1544 98.5911 30.685C98.9711 30.2157 99.5191 29.981 100.234 29.981C100.94 29.981 101.481 30.2179 101.856 30.6917C102.232 31.1611 102.42 31.8383 102.42 32.7234C102.42 33.6129 102.232 34.2946 101.856 34.7685C101.481 35.2378 100.94 35.4725 100.234 35.4725C99.5231 35.4725 98.9751 35.2378 98.5911 34.7685Z" fill="#194B7E"/>
<path d="M94.1194 36.3252V31.9065C94.1194 31.2002 94.0094 30.713 93.7904 30.4448C93.5764 30.1721 93.2054 30.0358 92.6774 30.0358C92.0024 30.0358 91.4774 30.228 91.1024 30.6124C90.7314 30.9924 90.5454 31.5333 90.5454 32.2351V36.3252H89.3384V29.144H90.4914V30.19C90.7684 29.7743 91.0974 29.4658 91.4774 29.2647C91.8574 29.0635 92.2974 28.9629 92.7984 28.9629C93.3394 28.9629 93.7954 29.0456 94.1664 29.211C94.5374 29.372 94.8234 29.6156 95.0244 29.9419C95.1364 30.1162 95.2164 30.3219 95.2654 30.5588C95.3154 30.7912 95.3394 31.1622 95.3394 31.6718V36.3252H94.1194Z" fill="#194B7E"/>
<path d="M86.3015 31.9065V36.3252H87.5215V31.6718C87.5215 31.1622 87.4975 30.7912 87.4485 30.5588C87.3985 30.3219 87.3185 30.1162 87.2065 29.9419C87.0055 29.6156 86.7195 29.372 86.3485 29.211C85.9775 29.0456 85.5215 28.9629 84.9805 28.9629C84.4795 28.9629 84.0395 29.0635 83.6595 29.2647C83.2795 29.4658 82.9515 29.7743 82.6735 30.19V29.144H81.5205V36.3252H82.7275V32.2351C82.7275 31.5333 82.9135 30.9924 83.2845 30.6124C83.6595 30.228 84.1845 30.0358 84.8595 30.0358C85.3875 30.0358 85.7585 30.1721 85.9725 30.4448C86.1915 30.713 86.3015 31.2002 86.3015 31.9065Z" fill="#194B7E"/>
<path d="M78.1606 36.324V26.4473H79.5017V36.324H78.1606Z" fill="#194B7E"/>
<path d="M69.6655 29.1444V36.3256H70.8724V32.3294C70.8724 31.6588 71.04 31.1492 71.3753 30.8006C71.715 30.4474 72.2067 30.2709 72.8504 30.2709C72.9309 30.2709 72.9912 30.2731 73.0315 30.2776C73.0717 30.2776 73.1074 30.2798 73.1387 30.2843V29.0103C73.0985 29.0014 73.0583 28.9969 73.018 28.9969C72.9778 28.9924 72.913 28.9902 72.8236 28.9902C72.3453 28.9902 71.9408 29.1109 71.61 29.3523C71.2836 29.5892 71.0244 29.949 70.8322 30.4318V29.1444H69.6655Z" fill="#194B7E"/>
<path d="M63.0406 29.1426V33.5479C63.0406 34.2542 63.1502 34.7459 63.3692 35.023C63.5927 35.2957 63.9682 35.4321 64.4957 35.4321C65.193 35.4321 65.7205 35.2287 66.0781 34.8219C66.4357 34.4106 66.6145 33.8072 66.6145 33.0115V29.1426H67.8214V36.3238H66.6681V35.251C66.4178 35.6667 66.0937 35.9796 65.6959 36.1897C65.298 36.3998 64.8309 36.5049 64.2945 36.5049C63.7938 36.5049 63.358 36.4199 62.987 36.2501C62.616 36.0802 62.3321 35.8388 62.1354 35.5259C62.0237 35.3516 61.9432 35.1482 61.8941 34.9158C61.8449 34.6788 61.8203 34.3056 61.8203 33.796V29.1426H63.0406Z" fill="#194B7E"/>
<path fill-rule="evenodd" clip-rule="evenodd" d="M54.3979 29.9139C53.799 30.5844 53.4995 31.5209 53.4995 32.7234C53.4995 33.9348 53.8012 34.8757 54.4046 35.5462C55.0081 36.2123 55.8552 36.5453 56.9459 36.5453C58.0321 36.5453 58.8747 36.2101 59.4737 35.5395C60.0772 34.869 60.3789 33.9303 60.3789 32.7234C60.3789 31.5165 60.0772 30.58 59.4737 29.9139C58.8703 29.2434 58.0232 28.9082 56.9325 28.9082C55.8463 28.9082 55.0014 29.2434 54.3979 29.9139ZM55.3031 34.7685C54.9232 34.2946 54.7332 33.6129 54.7332 32.7234C54.7332 31.8338 54.9232 31.1544 55.3031 30.685C55.6831 30.2157 56.2307 29.981 56.9459 29.981C57.6522 29.981 58.1931 30.2179 58.5685 30.6917C58.944 31.1611 59.1318 31.8383 59.1318 32.7234C59.1318 33.6129 58.944 34.2946 58.5685 34.7685C58.1931 35.2378 57.6522 35.4725 56.9459 35.4725C56.2352 35.4725 55.6876 35.2378 55.3031 34.7685Z" fill="#194B7E"/>
<path d="M50.8106 36.324H49.4629V32.368L45.8018 26.4473H47.4848L50.1267 31.1208L52.7484 26.4473H54.3241L50.8106 32.2741V36.324Z" fill="#194B7E"/>
<path fill-rule="evenodd" clip-rule="evenodd" d="M39.0629 36.2838C39.4428 36.0961 39.7736 35.8167 40.0552 35.4457V36.4313C40.0552 37.0974 39.8876 37.5757 39.5524 37.8662C39.2216 38.1568 38.6762 38.3021 37.9163 38.3021C37.2816 38.3021 36.8055 38.2082 36.4881 38.0204C36.1752 37.8372 36.0188 37.56 36.0188 37.189V37.1622H34.8386V37.2158C34.8386 37.8729 35.1069 38.387 35.6433 38.758C36.1797 39.129 36.9239 39.3145 37.8761 39.3145C39.0517 39.3145 39.9033 39.0664 40.4307 38.5703C40.9582 38.0786 41.2219 37.2784 41.2219 36.1698V29.1428H40.0418V30.048C39.7334 29.6502 39.3981 29.3619 39.0361 29.1831C38.6785 28.9998 38.2627 28.9082 37.7889 28.9082C36.8144 28.9082 36.0299 29.2568 35.4354 29.9542C34.8453 30.647 34.5503 31.5656 34.5503 32.71C34.5503 33.8677 34.8453 34.7997 35.4354 35.506C36.0255 36.2078 36.8055 36.5587 37.7755 36.5587C38.2583 36.5587 38.6874 36.4671 39.0629 36.2838ZM36.3607 30.7051C36.7273 30.2313 37.2503 29.9944 37.9297 29.9944C38.6449 29.9944 39.1836 30.2291 39.5457 30.6984C39.9122 31.1678 40.0955 31.8629 40.0955 32.7837C40.0955 33.6956 39.9189 34.3728 39.5658 34.8154C39.2171 35.2535 38.6762 35.4725 37.9431 35.4725C37.2726 35.4725 36.7496 35.2333 36.3741 34.755C35.9986 34.2723 35.8109 33.5995 35.8109 32.7368C35.8109 31.8562 35.9942 31.179 36.3607 30.7051Z" fill="#194B7E"/>
<path d="M31.855 36.3252V31.9065C31.855 31.2002 31.7455 30.713 31.5264 30.4448C31.3119 30.1721 30.9408 30.0358 30.4134 30.0358C29.7384 30.0358 29.2131 30.228 28.8377 30.6124C28.4666 30.9924 28.2811 31.5333 28.2811 32.2351V36.3252H27.0742V29.144H28.2275V30.19C28.5046 29.7743 28.8332 29.4658 29.2131 29.2647C29.5931 29.0635 30.0334 28.9629 30.5341 28.9629C31.0749 28.9629 31.5309 29.0456 31.9019 29.211C32.2729 29.372 32.559 29.6156 32.7602 29.9419C32.8719 30.1162 32.9524 30.3219 33.0016 30.5588C33.0507 30.7912 33.0753 31.1622 33.0753 31.6718V36.3252H31.855Z" fill="#194B7E"/>
<path d="M24.0166 26.4473V27.8219H25.2235V26.4473H24.0166Z" fill="#194B7E"/>
<path d="M24.0166 29.1428V36.324H25.2235V29.1428H24.0166Z" fill="#194B7E"/>
<path d="M19.1486 36.3238L16.5 29.1426H17.7941L19.799 34.8956L21.7569 29.1426H23.051L20.4292 36.3238H19.1486Z" fill="#194B7E"/>
<path d="M14.3481 26.4473V27.8219H15.555V26.4473H14.3481Z" fill="#194B7E"/>
<path d="M14.3481 29.1428V36.324H15.555V29.1428H14.3481Z" fill="#194B7E"/>
<path d="M9.78857 36.3256V29.1444H10.9553V30.4318C11.1475 29.949 11.4067 29.5892 11.7331 29.3523C12.0638 29.1109 12.4684 28.9902 12.9467 28.9902C13.0361 28.9902 13.1009 28.9924 13.1411 28.9969C13.1814 28.9969 13.2216 29.0014 13.2618 29.0103V30.2843C13.2305 30.2798 13.1948 30.2776 13.1545 30.2776C13.1143 30.2731 13.054 30.2709 12.9735 30.2709C12.3298 30.2709 11.8381 30.4474 11.4984 30.8006C11.1631 31.1492 10.9955 31.6588 10.9955 32.3294V36.3256H9.78857Z" fill="#194B7E"/>
<path fill-rule="evenodd" clip-rule="evenodd" d="M0.220215 26.4473V36.324H3.92811C5.28711 36.324 6.34421 35.8792 7.09971 34.9897C7.85961 34.0957 8.23961 32.8463 8.23961 31.2415C8.23961 29.6904 7.87301 28.5036 7.13991 27.6811C6.41131 26.8586 5.35862 26.4473 3.98182 26.4473H0.220215ZM1.56121 27.5872H3.86782C4.83781 27.5872 5.57981 27.9068 6.09391 28.546C6.60801 29.1853 6.86502 30.1061 6.86502 31.3085C6.86502 32.5646 6.61242 33.5145 6.10732 34.1582C5.60221 34.7975 4.85571 35.1171 3.86782 35.1171H1.56121V27.5872Z" fill="#194B7E"/>
</g>
<defs>
<clipPath id="clip0_1993_10666">
<rect width="195" height="40" fill="white"/>
</clipPath>
</defs>
</svg>
