<svg width="255" height="44" viewBox="0 0 255 44" fill="none" xmlns="http://www.w3.org/2000/svg">
<path fill-rule="evenodd" clip-rule="evenodd" d="M37.9217 13.3724V33.8072C39.2268 34.6677 40.1045 36.1749 40.0999 37.8865C40.0999 40.5585 37.9998 42.7313 35.4171 42.7313C32.8345 42.7313 30.7344 40.5585 30.7344 37.8865C30.7344 36.1749 31.5983 34.682 32.8942 33.8167L33.0597 15.0793C32.9218 15.0412 32.7885 14.9984 32.6553 14.9509L23.7907 35.2716C24.2594 36.0275 24.5397 36.9214 24.5397 37.8865C24.5397 40.5585 22.4396 42.7313 19.8569 42.7313C17.2743 42.7313 15.1742 40.5585 15.1742 37.8865C15.1742 36.8691 15.4821 35.9229 16.006 35.1432L7.35272 14.9604C7.22864 15.008 7.09997 15.0507 6.9713 15.084L7.14133 33.7834C8.46942 34.6392 9.36553 36.1559 9.36553 37.8913C9.36553 40.5633 7.26541 42.7361 4.68276 42.7361C2.10012 42.7361 0 40.5633 0 37.8913C0 36.1987 0.840967 34.7105 2.11391 33.8452V13.3819C1.49352 12.5594 1.1075 11.5372 1.1075 10.4151C1.1075 7.74311 3.20762 5.57031 5.79027 5.57031C8.37291 5.57031 10.473 7.74311 10.473 10.4151C10.473 10.4867 10.464 10.5545 10.455 10.6221C10.4496 10.6623 10.4443 10.7024 10.4409 10.7432L19.9213 32.8563L29.5993 10.8478C29.5948 10.801 29.5888 10.7542 29.5827 10.7072C29.5704 10.6111 29.5579 10.5141 29.5579 10.4151C29.5579 7.74311 31.6581 5.57031 34.2407 5.57031C36.8233 5.57031 38.9235 7.74311 38.9235 10.4151C38.9235 11.5324 38.5375 12.5499 37.9217 13.3724ZM4.68276 41.6236C6.6634 41.6236 8.26722 39.9642 8.26722 37.9151C8.26722 35.8706 6.6634 34.2066 4.68276 34.2066C2.70212 34.2066 1.09831 35.8659 1.09831 37.9151C1.09831 39.9642 2.70212 41.6236 4.68276 41.6236ZM2.20582 10.4627C2.20582 12.5119 3.80963 14.1712 5.79027 14.1712C7.77091 14.1712 9.37472 12.5119 9.37012 10.4627C9.37012 8.65597 8.12016 7.15356 6.4658 6.8255C6.24522 6.77795 6.02004 6.75418 5.78567 6.75418C5.5559 6.75418 5.33072 6.77795 5.11014 6.8255C3.45578 7.15356 2.20582 8.65597 2.20582 10.4627ZM16.2771 37.9151C16.2771 39.9642 17.8809 41.6236 19.8615 41.6236C21.8376 41.6236 23.4414 39.9642 23.446 37.9151C23.446 35.8659 21.8422 34.2066 19.8615 34.2066C17.8809 34.2066 16.2771 35.8659 16.2771 37.9151ZM33.556 6.8255C31.9016 7.15356 30.6517 8.65597 30.6517 10.4627C30.6517 12.5119 32.2601 14.1712 34.2315 14.1712C36.2122 14.1712 37.816 12.5119 37.816 10.4627C37.816 8.65597 36.566 7.15356 34.9116 6.8255C34.6911 6.77795 34.4659 6.75418 34.2315 6.75418C34.0017 6.75418 33.7766 6.77795 33.556 6.8255ZM31.8327 37.9151C31.8327 39.9642 33.4365 41.6236 35.4171 41.6236C37.3978 41.6236 39.0016 39.9642 39.0016 37.9151C39.0016 35.8659 37.3978 34.2066 35.4171 34.2066C33.4365 34.2066 31.8327 35.8659 31.8327 37.9151Z" fill="white"/>
<path d="M53.4667 0.700195C53.6681 0.700195 53.8313 0.863408 53.8313 1.06474L53.8313 43.595C53.8313 43.7963 53.6681 43.9595 53.4667 43.9595C53.2654 43.9595 53.1022 43.7963 53.1022 43.595L53.1022 1.06474C53.1022 0.863408 53.2654 0.700195 53.4667 0.700195Z" fill="white"/>
<path d="M133.974 16.9206H132.047C132.12 18.6054 132.653 19.9006 133.645 20.8062C134.644 21.7052 136.035 22.1547 137.82 22.1547C139.551 22.1547 140.923 21.7352 141.935 20.8961C142.954 20.0571 143.464 18.9283 143.464 17.5099C143.464 16.9239 143.36 16.3945 143.154 15.9217C142.948 15.4423 142.648 15.036 142.255 14.7031C141.736 14.2636 140.683 13.854 139.099 13.4745C138.999 13.4478 138.929 13.4312 138.889 13.4245L138.06 13.2248C135.636 12.6654 134.424 11.8163 134.424 10.6776C134.424 9.96509 134.717 9.39573 135.303 8.96955C135.889 8.5367 136.671 8.32028 137.65 8.32028C138.696 8.32028 139.518 8.58331 140.117 9.10939C140.723 9.63546 141.06 10.3913 141.126 11.3768L143.034 11.3668L143.034 11.3404L146.991 22.3744L146.522 23.643C146.409 23.9493 146.245 24.1724 146.032 24.3123C145.819 24.4521 145.54 24.522 145.193 24.522C145.02 24.522 144.847 24.5087 144.674 24.4821C144.501 24.4554 144.324 24.4155 144.145 24.3622V26.0803C144.324 26.1335 144.501 26.1735 144.674 26.2001C144.854 26.2334 145.033 26.2501 145.213 26.2501C146.032 26.2501 146.658 26.0703 147.091 25.7107C147.524 25.3511 147.954 24.5886 148.38 23.4233L152.885 11.0672H150.877L147.91 19.7174L144.944 11.0672H143.025C142.953 9.75072 142.483 8.70524 141.616 7.93072C140.683 7.09166 139.405 6.67213 137.78 6.67213C136.189 6.67213 134.913 7.07168 133.954 7.87078C132.995 8.66322 132.516 9.71537 132.516 11.0272C132.516 12.0994 132.836 12.9284 133.475 13.5144C134.121 14.0938 135.443 14.6198 137.44 15.0927C137.52 15.1126 137.634 15.1393 137.78 15.1726C140.244 15.7586 141.476 16.6143 141.476 17.7397C141.476 18.5654 141.146 19.218 140.487 19.6975C139.834 20.1769 138.939 20.4167 137.8 20.4167C136.648 20.4167 135.726 20.1003 135.033 19.4677C134.347 18.8351 133.994 17.9861 133.974 16.9206Z" fill="white"/>
<path d="M71.2111 21.819V7.05761H75.7007L78.6369 18.2915L81.5331 7.05761H86.0427V21.819H83.1967V9.91369L80.2003 21.819H77.0937L74.0572 9.91369V21.819H71.2111Z" fill="white"/>
<path d="M88.3033 9.71339V7.05774H91.2195V9.71339H88.3033Z" fill="white"/>
<path d="M88.3033 10.926V21.8192H91.2195V10.926H88.3033Z" fill="white"/>
<path d="M99.4029 21.8192V7.05774H102.239V14.8042L105.706 10.926H109.214L105.416 14.9646L109.444 21.8192H105.947L103.341 17.1793L102.239 18.3718V21.8192H99.4029Z" fill="white"/>
<path fill-rule="evenodd" clip-rule="evenodd" d="M108.739 16.3576C108.739 14.5471 109.23 13.1241 110.212 12.0885C111.194 11.053 112.544 10.5352 114.261 10.5352C115.971 10.5352 117.317 11.053 118.299 12.0885C119.288 13.1241 119.783 14.5471 119.783 16.3576C119.783 18.1748 119.288 19.6012 118.299 20.6367C117.317 21.6723 115.971 22.19 114.261 22.19C112.544 22.19 111.194 21.6723 110.212 20.6367C109.23 19.6012 108.739 18.1748 108.739 16.3576ZM111.695 16.3576C111.695 17.4399 111.916 18.275 112.357 18.863C112.804 19.4509 113.439 19.7448 114.261 19.7448C115.069 19.7448 115.694 19.4509 116.135 18.863C116.582 18.275 116.806 17.4399 116.806 16.3576C116.806 15.282 116.586 14.4536 116.145 13.8723C115.704 13.2844 115.076 12.9905 114.261 12.9905C113.439 12.9905 112.804 13.2844 112.357 13.8723C111.916 14.4536 111.695 15.282 111.695 16.3576Z" fill="white"/>
<path d="M119.108 10.9258L123.026 21.819H126.002L129.901 10.9258H126.824L124.569 18.7424L122.334 10.9258H119.108Z" fill="white"/>
<path d="M98.0594 21.8995C97.7922 21.9062 97.4715 21.9162 97.0974 21.9296C96.7299 21.9496 96.4961 21.9596 96.3959 21.9596C95.2802 21.9596 94.5152 21.7525 94.101 21.3383C93.6935 20.9174 93.4897 20.0923 93.4897 18.863V12.9705H92.0466V10.9261H93.4897V7.94981H96.3759V10.9261H98.0594V12.9705H96.3759V19.0033C96.3759 19.2906 96.4393 19.481 96.5663 19.5746C96.6932 19.6614 96.9538 19.7048 97.3479 19.7048H98.0594V21.8995Z" fill="white"/>
<path d="M244.496 21.2939V7.45505H245.765V13.4585H253.675V7.45505H254.962V21.2939H253.675V14.5953H245.765V21.2939H244.496Z" fill="white"/>
<path fill-rule="evenodd" clip-rule="evenodd" d="M234.292 21.2939V7.45505H235.448V13.0827C235.823 12.4062 236.303 11.8989 236.885 11.5607C237.468 11.2225 238.157 11.0533 238.952 11.0533C240.317 11.0533 241.395 11.5231 242.184 12.4626C242.979 13.4021 243.377 14.6861 243.377 16.3145C243.377 17.9367 242.973 19.2176 242.165 20.1571C241.363 21.0966 240.267 21.5664 238.877 21.5664C238.106 21.5664 237.427 21.3972 236.838 21.059C236.256 20.7145 235.792 20.2166 235.448 19.5652V21.2939H234.292ZM235.391 16.3145C235.391 17.6424 235.689 18.679 236.284 19.4243C236.885 20.1696 237.715 20.5423 238.774 20.5423C239.857 20.5423 240.69 20.179 241.273 19.4525C241.855 18.7197 242.146 17.6737 242.146 16.3145C242.146 14.9617 241.852 13.9188 241.263 13.186C240.681 12.4469 239.851 12.0774 238.774 12.0774C237.69 12.0774 236.854 12.4438 236.265 13.1766C235.683 13.9094 235.391 14.9554 235.391 16.3145Z" fill="white"/>
<path d="M219.4 21.2939V11.307H220.48V12.9605C220.819 12.3467 221.257 11.877 221.796 11.5513C222.341 11.2193 222.961 11.0533 223.656 11.0533C224.401 11.0533 225.021 11.2256 225.516 11.5701C226.011 11.9083 226.34 12.3906 226.503 13.0169C226.834 12.378 227.273 11.8926 227.818 11.5607C228.369 11.2225 229.002 11.0533 229.716 11.0533C230.799 11.0533 231.607 11.3258 232.14 11.8707C232.678 12.4094 232.947 13.2298 232.947 14.3322V21.2939H231.773V14.4261C231.773 13.5869 231.61 12.9856 231.285 12.6223C230.959 12.259 230.423 12.0774 229.678 12.0774C228.795 12.0774 228.087 12.3499 227.555 12.8948C227.022 13.4397 226.756 14.1537 226.756 15.0368V21.2939H225.601V14.5389C225.601 13.7121 225.428 13.0983 225.084 12.6975C224.739 12.2966 224.21 12.0962 223.496 12.0962C222.619 12.0962 221.908 12.3749 221.363 12.9323C220.825 13.4898 220.555 14.2195 220.555 15.1214V21.2939H219.4Z" fill="white"/>
<path d="M216.975 21.2939L216.843 18.8512C216.417 19.7406 215.779 20.4358 214.927 20.9369C214.081 21.4317 213.11 21.6791 212.014 21.6791C210.091 21.6791 208.576 21.0246 207.467 19.7155C206.365 18.4065 205.814 16.6183 205.814 14.351C205.814 12.1024 206.377 10.3331 207.505 9.04281C208.632 7.7463 210.16 7.09804 212.089 7.09804C213.699 7.09804 215.005 7.48324 216.007 8.25363C217.016 9.01776 217.62 10.095 217.82 11.4855H216.515C216.32 10.4646 215.832 9.66288 215.049 9.08039C214.266 8.4979 213.286 8.20665 212.108 8.20665C210.511 8.20665 209.277 8.73904 208.407 9.80381C207.542 10.8623 207.11 12.3718 207.11 14.3322C207.11 16.23 207.545 17.7332 208.416 18.8418C209.287 19.9504 210.467 20.5047 211.958 20.5047C213.48 20.5047 214.664 20.0569 215.509 19.1612C216.361 18.2656 216.787 17.0066 216.787 15.3844V15.3281H212.221V14.1913H217.999V21.2939H216.975Z" fill="white"/>
<path d="M193.893 18.2891H195.621C195.688 19.0149 195.947 19.5643 196.4 19.9372C196.86 20.3101 197.509 20.4966 198.348 20.4966C199.12 20.4966 199.73 20.3467 200.176 20.0471C200.622 19.7407 200.845 19.3245 200.845 18.7985C200.845 18.4056 200.732 18.1059 200.505 17.8995C200.286 17.6864 199.853 17.5033 199.207 17.3501L197.199 16.8307C196.067 16.5577 195.278 16.1981 194.832 15.7519C194.392 15.2991 194.173 14.6565 194.173 13.8241C194.173 12.8785 194.529 12.1293 195.241 11.5766C195.961 11.0172 196.943 10.7376 198.188 10.7376C199.46 10.7376 200.472 11.0339 201.225 11.6266C201.977 12.2192 202.353 13.015 202.353 14.0139V14.0538H200.605C200.565 13.4878 200.332 13.0516 199.906 12.7453C199.487 12.4323 198.914 12.2758 198.188 12.2758C197.462 12.2758 196.909 12.4023 196.53 12.6554C196.157 12.9084 195.971 13.278 195.971 13.7641C195.971 14.1104 196.087 14.3834 196.32 14.5832C196.56 14.7763 197.003 14.9461 197.649 15.0926L199.387 15.5022C200.625 15.7952 201.478 16.1714 201.944 16.6309C202.41 17.0837 202.643 17.733 202.643 18.5787C202.643 19.6908 202.25 20.5565 201.464 21.1758C200.685 21.7884 199.593 22.0948 198.188 22.0948C196.816 22.0948 195.761 21.7685 195.022 21.1159C194.289 20.4633 193.913 19.521 193.893 18.2891Z" fill="white"/>
<path d="M190.711 21.7651V15.1825C190.711 14.1038 190.564 13.3679 190.271 12.975C189.978 12.5755 189.469 12.3757 188.743 12.3757C187.877 12.3757 187.205 12.6454 186.725 13.1848C186.246 13.7175 186.006 14.47 186.006 15.4423V21.7651H184.178V15.1825C184.178 14.1038 184.032 13.3679 183.739 12.975C183.446 12.5755 182.94 12.3757 182.22 12.3757C181.361 12.3757 180.689 12.6487 180.203 13.1948C179.717 13.7342 179.474 14.4833 179.474 15.4423V21.7651H177.676V11.0672H179.394V12.5755C179.793 11.9762 180.266 11.53 180.812 11.237C181.358 10.944 181.997 10.7975 182.73 10.7975C183.396 10.7975 183.965 10.934 184.438 11.207C184.911 11.4734 185.317 11.8962 185.657 12.4756C186.123 11.8962 186.632 11.4734 187.185 11.207C187.738 10.934 188.373 10.7975 189.093 10.7975C189.785 10.7975 190.388 10.924 190.901 11.1771C191.413 11.4234 191.806 11.783 192.079 12.2558C192.232 12.5289 192.342 12.8552 192.409 13.2347C192.476 13.6143 192.509 14.2136 192.509 15.0327V21.7651H190.711Z" fill="white"/>
<path fill-rule="evenodd" clip-rule="evenodd" d="M174.304 18.309H176.082C175.889 19.4877 175.376 20.4167 174.543 21.0959C173.711 21.7751 172.662 22.1147 171.397 22.1147C169.912 22.1147 168.74 21.6153 167.881 20.6164C167.022 19.6176 166.592 18.2558 166.592 16.531C166.592 14.7064 167.019 13.2814 167.871 12.2558C168.723 11.2303 169.899 10.7176 171.397 10.7176C172.935 10.7176 174.124 11.1904 174.963 12.136C175.809 13.0816 176.232 14.4167 176.232 16.1415C176.232 16.3612 176.228 16.5244 176.222 16.6309C176.222 16.7375 176.215 16.8407 176.202 16.9406H168.48C168.5 18.066 168.78 18.9383 169.319 19.5576C169.859 20.1703 170.608 20.4766 171.567 20.4766C172.299 20.4766 172.902 20.2901 173.375 19.9172C173.854 19.5376 174.164 19.0016 174.304 18.309ZM168.47 15.4423H174.344C174.337 14.4434 174.084 13.6742 173.585 13.1349C173.085 12.5888 172.376 12.3158 171.457 12.3158C170.571 12.3158 169.872 12.5821 169.359 13.1149C168.853 13.6476 168.557 14.4234 168.47 15.4423Z" fill="white"/>
<path d="M164.683 19.0682C164.683 19.5476 164.75 19.8673 164.883 20.0271C165.023 20.1869 165.276 20.2668 165.642 20.2668C165.749 20.2668 165.875 20.2635 166.022 20.2568C166.175 20.2502 166.371 20.2369 166.611 20.2169V21.7452C166.312 21.7984 166.042 21.8384 165.802 21.865C165.569 21.8917 165.359 21.905 165.173 21.905C164.327 21.905 163.734 21.7418 163.395 21.4155C163.055 21.0892 162.885 20.5099 162.885 19.6775V12.4956H161.287V11.0672H162.885V8.08055H164.683V11.0672H166.611V12.4956H164.683V19.0682Z" fill="white"/>
<path d="M152.516 18.2891H154.244C154.311 19.0149 154.571 19.5643 155.023 19.9372C155.483 20.3101 156.132 20.4966 156.971 20.4966C157.744 20.4966 158.353 20.3467 158.799 20.0471C159.245 19.7407 159.468 19.3245 159.468 18.7985C159.468 18.4056 159.355 18.1059 159.129 17.8995C158.909 17.6864 158.476 17.5033 157.83 17.3501L155.823 16.8307C154.69 16.5577 153.901 16.1981 153.455 15.7519C153.016 15.2991 152.796 14.6565 152.796 13.8241C152.796 12.8785 153.152 12.1293 153.865 11.5766C154.584 11.0172 155.566 10.7376 156.811 10.7376C158.083 10.7376 159.096 11.0339 159.848 11.6266C160.6 12.2192 160.977 13.015 160.977 14.0139V14.0538H159.229C159.189 13.4878 158.956 13.0516 158.529 12.7453C158.11 12.4323 157.537 12.2758 156.811 12.2758C156.086 12.2758 155.533 12.4023 155.153 12.6554C154.78 12.9084 154.594 13.278 154.594 13.7641C154.594 14.1104 154.71 14.3834 154.944 14.5832C155.183 14.7763 155.626 14.9461 156.272 15.0926L158.01 15.5022C159.249 15.7952 160.101 16.1714 160.567 16.6309C161.033 17.0837 161.266 17.733 161.266 18.5787C161.266 19.6908 160.874 20.5565 160.088 21.1758C159.309 21.7884 158.217 22.0948 156.811 22.0948C155.44 22.0948 154.384 21.7685 153.645 21.1159C152.912 20.4633 152.536 19.521 152.516 18.2891Z" fill="white"/>
<path d="M73.1752 40.4234V31.8736H74.3361V40.4234H73.1752Z" fill="white"/>
<path d="M80.4595 36.5983V40.4234H81.5159V36.3951C81.5159 35.954 81.4946 35.6328 81.452 35.4316C81.4095 35.2265 81.3398 35.0485 81.2431 34.8976C81.0689 34.6151 80.8213 34.4042 80.5001 34.2649C80.1789 34.1218 79.7842 34.0502 79.316 34.0502C78.8826 34.0502 78.5015 34.1372 78.1726 34.3114C77.8437 34.4855 77.5592 34.7525 77.3193 35.1124V34.2069H76.321V40.4234H77.3658V36.8827C77.3658 36.2752 77.5264 35.807 77.8475 35.4781C78.1726 35.1453 78.6272 34.9789 79.2115 34.9789C79.6682 34.9789 79.9893 35.0969 80.1751 35.3329C80.3647 35.5651 80.4595 35.9869 80.4595 36.5983Z" fill="white"/>
<path d="M87.4651 40.4234V36.5983C87.4651 35.9869 87.3703 35.5651 87.1807 35.3329C86.995 35.0969 86.6738 34.9789 86.2172 34.9789C85.6329 34.9789 85.1782 35.1453 84.8531 35.4781C84.532 35.807 84.3714 36.2752 84.3714 36.8827V40.4234H83.3266V34.2069H84.325V35.1124C84.5649 34.7525 84.8493 34.4855 85.1782 34.3114C85.5071 34.1372 85.8883 34.0502 86.3217 34.0502C86.7899 34.0502 87.1846 34.1218 87.5057 34.2649C87.8269 34.4042 88.0746 34.6151 88.2487 34.8976C88.3454 35.0485 88.4151 35.2265 88.4577 35.4316C88.5002 35.6328 88.5215 35.954 88.5215 36.3951V40.4234H87.4651Z" fill="white"/>
<path fill-rule="evenodd" clip-rule="evenodd" d="M90.7908 34.8744C90.2723 35.4548 90.013 36.2655 90.013 37.3064C90.013 38.3551 90.2742 39.1696 90.7966 39.7501C91.319 40.3266 92.0523 40.6149 92.9964 40.6149C93.9367 40.6149 94.6662 40.3247 95.1847 39.7443C95.7071 39.1638 95.9683 38.3512 95.9683 37.3064C95.9683 36.2616 95.7071 35.451 95.1847 34.8744C94.6623 34.294 93.929 34.0037 92.9848 34.0037C92.0445 34.0037 91.3132 34.294 90.7908 34.8744ZM91.5744 39.0768C91.2455 38.6666 91.081 38.0765 91.081 37.3064C91.081 36.5364 91.2455 35.9482 91.5744 35.5419C91.9033 35.1356 92.3773 34.9324 92.9964 34.9324C93.6078 34.9324 94.0761 35.1375 94.4011 35.5477C94.7261 35.954 94.8887 36.5403 94.8887 37.3064C94.8887 38.0765 94.7261 38.6666 94.4011 39.0768C94.0761 39.4831 93.6078 39.6862 92.9964 39.6862C92.3812 39.6862 91.9072 39.4831 91.5744 39.0768Z" fill="white"/>
<path d="M98.9863 40.4234L96.6936 34.2069H97.8138L99.5493 39.187L101.244 34.2069H102.364L100.095 40.4234H98.9863Z" fill="white"/>
<path fill-rule="evenodd" clip-rule="evenodd" d="M106.242 40.3595C106.609 40.1893 106.955 39.9339 107.281 39.5933V39.6282C107.281 39.9339 107.368 40.1622 107.542 40.3131C107.716 40.464 107.977 40.5395 108.325 40.5395C108.41 40.5395 108.499 40.5317 108.592 40.5162C108.689 40.5046 108.801 40.4814 108.929 40.4466V39.6398C108.867 39.6514 108.813 39.6611 108.766 39.6688C108.724 39.6727 108.687 39.6746 108.656 39.6746C108.505 39.6746 108.401 39.6359 108.343 39.5585C108.285 39.4811 108.256 39.3089 108.256 39.0419V35.9308C108.256 35.2691 108.058 34.7835 107.664 34.4739C107.273 34.1605 106.661 34.0037 105.829 34.0037C105.056 34.0037 104.448 34.1856 104.007 34.5494C103.566 34.9131 103.345 35.4084 103.345 36.0353V36.0817H104.332C104.332 35.7025 104.454 35.4161 104.698 35.2227C104.945 35.0292 105.311 34.9324 105.795 34.9324C106.263 34.9324 106.613 35.0118 106.845 35.1704C107.077 35.3291 107.193 35.5671 107.193 35.8844C107.193 36.1359 107.174 36.3003 107.135 36.3777C107.097 36.4513 107.017 36.5112 106.897 36.5577C106.777 36.608 106.452 36.6602 105.922 36.7144C105.613 36.7492 105.367 36.7763 105.185 36.7956C104.469 36.8885 103.935 37.0955 103.583 37.4167C103.235 37.7379 103.061 38.181 103.061 38.7459C103.061 39.3302 103.239 39.7888 103.595 40.1215C103.951 40.4505 104.446 40.6149 105.081 40.6149C105.491 40.6149 105.878 40.5298 106.242 40.3595ZM105.748 37.6141C106.425 37.5289 106.903 37.4109 107.182 37.26V38.1887C107.182 38.6298 107.002 38.9916 106.642 39.2741C106.282 39.5566 105.822 39.6978 105.261 39.6978C104.901 39.6978 104.624 39.6146 104.431 39.4482C104.237 39.2818 104.14 39.0439 104.14 38.7343C104.14 38.4247 104.224 38.1887 104.39 38.0262C104.556 37.8636 104.829 37.7514 105.208 37.6895C105.328 37.6702 105.508 37.645 105.748 37.6141Z" fill="white"/>
<path d="M111.355 38.8562C111.355 39.1348 111.394 39.3205 111.471 39.4134C111.552 39.5063 111.699 39.5527 111.912 39.5527C111.974 39.5527 112.048 39.5508 112.133 39.5469C112.222 39.543 112.336 39.5353 112.475 39.5237V40.4118C112.301 40.4427 112.144 40.4659 112.005 40.4814C111.87 40.4969 111.748 40.5046 111.639 40.5046C111.148 40.5046 110.804 40.4098 110.606 40.2202C110.409 40.0306 110.31 39.694 110.31 39.2103V35.0369H109.381V34.2069H110.31V32.4714H111.355V34.2069H112.475V35.0369H111.355V38.8562Z" fill="white"/>
<path d="M113.711 31.8736V33.0634H114.756V31.8736H113.711Z" fill="white"/>
<path d="M113.711 40.4234V34.2069H114.756V40.4234H113.711Z" fill="white"/>
<path fill-rule="evenodd" clip-rule="evenodd" d="M117.054 34.8744C116.536 35.4548 116.277 36.2655 116.277 37.3064C116.277 38.3551 116.538 39.1696 117.06 39.7501C117.583 40.3266 118.316 40.6149 119.26 40.6149C120.2 40.6149 120.93 40.3247 121.448 39.7443C121.971 39.1638 122.232 38.3512 122.232 37.3064C122.232 36.2616 121.971 35.451 121.448 34.8744C120.926 34.294 120.193 34.0037 119.248 34.0037C118.308 34.0037 117.577 34.294 117.054 34.8744ZM117.838 39.0768C117.509 38.6666 117.345 38.0765 117.345 37.3064C117.345 36.5364 117.509 35.9482 117.838 35.5419C118.167 35.1356 118.641 34.9324 119.26 34.9324C119.871 34.9324 120.34 35.1375 120.665 35.5477C120.99 35.954 121.152 36.5403 121.152 37.3064C121.152 38.0765 120.99 38.6666 120.665 39.0768C120.34 39.4831 119.871 39.6862 119.26 39.6862C118.645 39.6862 118.171 39.4831 117.838 39.0768Z" fill="white"/>
<path d="M127.879 40.4234V36.5983C127.879 35.9869 127.784 35.5651 127.595 35.3329C127.409 35.0969 127.088 34.9789 126.631 34.9789C126.047 34.9789 125.592 35.1453 125.267 35.4781C124.946 35.807 124.786 36.2752 124.786 36.8827V40.4234H123.741V34.2069H124.739V35.1124C124.979 34.7525 125.263 34.4855 125.592 34.3114C125.921 34.1372 126.302 34.0502 126.736 34.0502C127.204 34.0502 127.599 34.1218 127.92 34.2649C128.241 34.4042 128.489 34.6151 128.663 34.8976C128.76 35.0485 128.829 35.2265 128.872 35.4316C128.914 35.6328 128.936 35.954 128.936 36.3951V40.4234H127.879Z" fill="white"/>
<path d="M134.246 31.8736V33.0634H135.291V31.8736H134.246Z" fill="white"/>
<path d="M134.246 40.4234V34.2069H135.291V40.4234H134.246Z" fill="white"/>
<path d="M141.269 36.5983V40.4234H142.326V36.3951C142.326 35.954 142.304 35.6328 142.262 35.4316C142.219 35.2265 142.15 35.0485 142.053 34.8976C141.879 34.6151 141.631 34.4042 141.31 34.2649C140.989 34.1218 140.594 34.0502 140.126 34.0502C139.692 34.0502 139.311 34.1372 138.982 34.3114C138.653 34.4855 138.369 34.7525 138.129 35.1124V34.2069H137.131V40.4234H138.176V36.8827C138.176 36.2752 138.336 35.807 138.657 35.4781C138.982 35.1453 139.437 34.9789 140.021 34.9789C140.478 34.9789 140.799 35.0969 140.985 35.3329C141.174 35.5651 141.269 35.9869 141.269 36.5983Z" fill="white"/>
<path fill-rule="evenodd" clip-rule="evenodd" d="M151.821 38.4151H152.854C152.742 39.1 152.444 39.6398 151.96 40.0345C151.477 40.4292 150.867 40.6265 150.132 40.6265C149.269 40.6265 148.588 40.3363 148.089 39.7559C147.59 39.1754 147.34 38.3841 147.34 37.3819C147.34 36.3216 147.588 35.4935 148.083 34.8976C148.578 34.3017 149.261 34.0037 150.132 34.0037C151.026 34.0037 151.717 34.2785 152.204 34.828C152.696 35.3774 152.941 36.1533 152.941 37.1555C152.941 37.2832 152.939 37.378 152.936 37.4399C152.936 37.5018 152.932 37.5618 152.924 37.6199H148.437C148.449 38.2738 148.611 38.7807 148.925 39.1406C149.238 39.4966 149.673 39.6746 150.231 39.6746C150.656 39.6746 151.007 39.5663 151.281 39.3496C151.56 39.129 151.74 38.8175 151.821 38.4151ZM148.431 36.7492H151.844C151.84 36.1688 151.693 35.7218 151.403 35.4084C151.113 35.0911 150.701 34.9324 150.167 34.9324C149.652 34.9324 149.246 35.0872 148.948 35.3968C148.654 35.7064 148.482 36.1572 148.431 36.7492Z" fill="white"/>
<path d="M161.949 36.5983V40.4234H162.994V36.5112C162.994 36.0353 162.975 35.687 162.936 35.4664C162.898 35.2459 162.834 35.0563 162.745 34.8976C162.586 34.6229 162.358 34.4139 162.06 34.2707C161.762 34.1237 161.412 34.0502 161.009 34.0502C160.591 34.0502 160.222 34.1295 159.901 34.2882C159.579 34.4429 159.283 34.6887 159.012 35.0253C158.815 34.6887 158.579 34.4429 158.304 34.2882C158.03 34.1295 157.699 34.0502 157.312 34.0502C156.886 34.0502 156.515 34.1353 156.197 34.3056C155.88 34.4758 155.605 34.7351 155.373 35.0834V34.2069H154.375V40.4234H155.42V36.7492C155.42 36.192 155.561 35.7567 155.843 35.4432C156.126 35.1259 156.517 34.9673 157.016 34.9673C157.434 34.9673 157.728 35.0834 157.898 35.3155C158.068 35.5438 158.153 35.9714 158.153 36.5983V40.4234H159.216V36.7492C159.216 36.1842 159.355 35.747 159.634 35.4374C159.912 35.124 160.303 34.9673 160.806 34.9673C161.228 34.9673 161.524 35.0834 161.694 35.3155C161.864 35.5438 161.949 35.9714 161.949 36.5983Z" fill="white"/>
<path fill-rule="evenodd" clip-rule="evenodd" d="M164.84 40.4234V31.8736H165.861V35.0718C166.101 34.7196 166.39 34.4546 166.726 34.2766C167.067 34.0947 167.45 34.0037 167.875 34.0037C168.7 34.0037 169.361 34.3056 169.861 34.9092C170.36 35.5129 170.609 36.3216 170.609 37.3355C170.609 38.3338 170.362 39.1309 169.866 39.7268C169.375 40.3189 168.715 40.6149 167.887 40.6149C167.45 40.6149 167.067 40.5356 166.738 40.3769C166.413 40.2183 166.121 39.9726 165.861 39.6398V40.4234H164.84ZM165.827 37.2716C165.827 38.0455 165.985 38.6414 166.303 39.0593C166.62 39.4773 167.073 39.6862 167.661 39.6862C168.233 39.6862 168.684 39.4831 169.013 39.0768C169.346 38.6705 169.512 38.1132 169.512 37.4051C169.512 36.6196 169.352 36.014 169.031 35.5883C168.713 35.1588 168.261 34.9441 167.672 34.9441C167.057 34.9441 166.595 35.1395 166.285 35.5303C165.979 35.9173 165.827 36.4977 165.827 37.2716Z" fill="white"/>
<path fill-rule="evenodd" clip-rule="evenodd" d="M177.342 38.4151H176.309C176.228 38.8175 176.048 39.129 175.769 39.3496C175.494 39.5663 175.144 39.6746 174.719 39.6746C174.161 39.6746 173.726 39.4966 173.413 39.1406C173.099 38.7807 172.937 38.2738 172.925 37.6199H177.412C177.42 37.5618 177.423 37.5018 177.423 37.4399C177.427 37.378 177.429 37.2832 177.429 37.1555C177.429 36.1533 177.184 35.3774 176.692 34.828C176.205 34.2785 175.514 34.0037 174.62 34.0037C173.749 34.0037 173.066 34.3017 172.571 34.8976C172.076 35.4935 171.828 36.3216 171.828 37.3819C171.828 38.3841 172.078 39.1754 172.577 39.7559C173.076 40.3363 173.757 40.6265 174.62 40.6265C175.355 40.6265 175.965 40.4292 176.448 40.0345C176.932 39.6398 177.23 39.1 177.342 38.4151ZM176.332 36.7492H172.919C172.97 36.1572 173.142 35.7064 173.436 35.3968C173.734 35.0872 174.14 34.9324 174.655 34.9324C175.189 34.9324 175.601 35.0911 175.891 35.4084C176.181 35.7218 176.328 36.1688 176.332 36.7492Z" fill="white"/>
<path fill-rule="evenodd" clip-rule="evenodd" d="M184.296 31.8736V40.4234H183.286V39.6398C183.019 39.9648 182.717 40.2086 182.38 40.3711C182.043 40.5337 181.672 40.6149 181.266 40.6149C180.438 40.6149 179.776 40.3189 179.281 39.7268C178.789 39.1309 178.543 38.3338 178.543 37.3355C178.543 36.3178 178.791 35.509 179.286 34.9092C179.782 34.3056 180.441 34.0037 181.266 34.0037C181.699 34.0037 182.082 34.085 182.415 34.2475C182.752 34.4062 183.042 34.6461 183.286 34.9673V31.8736H184.296ZM183.32 37.2716C183.32 36.5016 183.164 35.9211 182.85 35.5303C182.541 35.1395 182.08 34.9441 181.469 34.9441C180.881 34.9441 180.426 35.1588 180.105 35.5883C179.784 36.014 179.623 36.6196 179.623 37.4051C179.623 38.1132 179.788 38.6705 180.116 39.0768C180.449 39.4831 180.904 39.6862 181.48 39.6862C182.065 39.6862 182.517 39.4773 182.839 39.0593C183.16 38.6414 183.32 38.0455 183.32 37.2716Z" fill="white"/>
<path fill-rule="evenodd" clip-rule="evenodd" d="M191.603 40.4234V31.8736H190.593V34.9673C190.349 34.6461 190.059 34.4062 189.722 34.2475C189.39 34.085 189.007 34.0037 188.573 34.0037C187.749 34.0037 187.089 34.3056 186.594 34.9092C186.099 35.509 185.851 36.3178 185.851 37.3355C185.851 38.3338 186.097 39.1309 186.588 39.7268C187.083 40.3189 187.745 40.6149 188.573 40.6149C188.979 40.6149 189.351 40.5337 189.688 40.3711C190.024 40.2086 190.326 39.9648 190.593 39.6398V40.4234H191.603ZM190.158 35.5303C190.471 35.9211 190.628 36.5016 190.628 37.2716C190.628 38.0455 190.467 38.6414 190.146 39.0593C189.825 39.4773 189.372 39.6862 188.788 39.6862C188.211 39.6862 187.757 39.4831 187.424 39.0768C187.095 38.6705 186.93 38.1132 186.93 37.4051C186.93 36.6196 187.091 36.014 187.412 35.5883C187.733 35.1588 188.188 34.9441 188.776 34.9441C189.388 34.9441 189.848 35.1395 190.158 35.5303Z" fill="white"/>
<path fill-rule="evenodd" clip-rule="evenodd" d="M197.663 38.4151H198.696C198.583 39.1 198.286 39.6398 197.802 40.0345C197.318 40.4292 196.709 40.6265 195.973 40.6265C195.111 40.6265 194.43 40.3363 193.93 39.7559C193.431 39.1754 193.182 38.3841 193.182 37.3819C193.182 36.3216 193.429 35.4935 193.925 34.8976C194.42 34.3017 195.103 34.0037 195.973 34.0037C196.867 34.0037 197.558 34.2785 198.046 34.828C198.537 35.3774 198.783 36.1533 198.783 37.1555C198.783 37.2832 198.781 37.378 198.777 37.4399C198.777 37.5018 198.773 37.5618 198.765 37.6199H194.279C194.29 38.2738 194.453 38.7807 194.766 39.1406C195.08 39.4966 195.515 39.6746 196.072 39.6746C196.498 39.6746 196.848 39.5663 197.123 39.3496C197.401 39.129 197.581 38.8175 197.663 38.4151ZM194.273 36.7492H197.686C197.682 36.1688 197.535 35.7218 197.245 35.4084C196.954 35.0911 196.542 34.9324 196.008 34.9324C195.494 34.9324 195.087 35.0872 194.789 35.3968C194.495 35.7064 194.323 36.1572 194.273 36.7492Z" fill="white"/>
<path fill-rule="evenodd" clip-rule="evenodd" d="M205.649 40.4234V31.8736H204.639V34.9673C204.395 34.6461 204.105 34.4062 203.769 34.2475C203.436 34.085 203.053 34.0037 202.619 34.0037C201.795 34.0037 201.135 34.3056 200.64 34.9092C200.145 35.509 199.897 36.3178 199.897 37.3355C199.897 38.3338 200.143 39.1309 200.634 39.7268C201.129 40.3189 201.791 40.6149 202.619 40.6149C203.026 40.6149 203.397 40.5337 203.734 40.3711C204.07 40.2086 204.372 39.9648 204.639 39.6398V40.4234H205.649ZM204.204 35.5303C204.517 35.9211 204.674 36.5016 204.674 37.2716C204.674 38.0455 204.513 38.6414 204.192 39.0593C203.871 39.4773 203.418 39.6862 202.834 39.6862C202.257 39.6862 201.803 39.4831 201.47 39.0768C201.141 38.6705 200.977 38.1132 200.977 37.4051C200.977 36.6196 201.137 36.014 201.458 35.5883C201.78 35.1588 202.234 34.9441 202.822 34.9441C203.434 34.9441 203.894 35.1395 204.204 35.5303Z" fill="white"/>
<path d="M210.6 38.4035H211.604C211.643 38.8252 211.794 39.1445 212.057 39.3612C212.324 39.5779 212.701 39.6862 213.189 39.6862C213.637 39.6862 213.991 39.5992 214.251 39.425C214.51 39.247 214.64 39.0052 214.64 38.6995C214.64 38.4712 214.574 38.297 214.442 38.1771C214.315 38.0533 214.063 37.9468 213.688 37.8578L212.521 37.556C211.863 37.3974 211.405 37.1884 211.145 36.9291C210.89 36.666 210.762 36.2926 210.762 35.8089C210.762 35.2594 210.969 34.8241 211.383 34.5029C211.801 34.1779 212.372 34.0154 213.096 34.0154C213.835 34.0154 214.423 34.1875 214.86 34.5319C215.297 34.8763 215.516 35.3388 215.516 35.9192V35.9424H214.5C214.477 35.6135 214.342 35.36 214.094 35.182C213.85 35.0002 213.517 34.9092 213.096 34.9092C212.674 34.9092 212.353 34.9828 212.132 35.1298C211.915 35.2768 211.807 35.4916 211.807 35.7741C211.807 35.9753 211.875 36.1339 212.01 36.25C212.15 36.3623 212.407 36.4609 212.782 36.5461L213.792 36.784C214.512 36.9543 215.007 37.1729 215.278 37.4399C215.549 37.7031 215.684 38.0803 215.684 38.5718C215.684 39.218 215.456 39.721 214.999 40.0809C214.547 40.4369 213.912 40.6149 213.096 40.6149C212.299 40.6149 211.685 40.4253 211.256 40.0461C210.83 39.6669 210.611 39.1193 210.6 38.4035Z" fill="white"/>
<path d="M222.261 34.2069H221.094L219.37 39.2335L217.646 34.2069H216.479L218.836 40.7774L218.563 41.5146C218.497 41.6926 218.403 41.8222 218.279 41.9035C218.155 41.9847 217.992 42.0254 217.791 42.0254C217.691 42.0254 217.59 42.0176 217.489 42.0022C217.389 41.9867 217.286 41.9635 217.182 41.9325V42.9309C217.286 42.9618 217.389 42.985 217.489 43.0005C217.594 43.0199 217.698 43.0295 217.803 43.0295C218.279 43.0295 218.642 42.9251 218.894 42.7161C219.145 42.5071 219.395 42.0641 219.643 41.3869L222.261 34.2069Z" fill="white"/>
<path d="M222.997 38.4035H224.002C224.04 38.8252 224.191 39.1445 224.454 39.3612C224.721 39.5779 225.099 39.6862 225.586 39.6862C226.035 39.6862 226.389 39.5992 226.648 39.425C226.908 39.247 227.037 39.0052 227.037 38.6995C227.037 38.4712 226.971 38.297 226.84 38.1771C226.712 38.0533 226.461 37.9468 226.085 37.8578L224.919 37.556C224.261 37.3974 223.802 37.1884 223.543 36.9291C223.288 36.666 223.16 36.2926 223.16 35.8089C223.16 35.2594 223.367 34.8241 223.781 34.5029C224.199 34.1779 224.77 34.0154 225.493 34.0154C226.232 34.0154 226.821 34.1875 227.258 34.5319C227.695 34.8763 227.914 35.3388 227.914 35.9192V35.9424H226.898C226.875 35.6135 226.739 35.36 226.492 35.182C226.248 35.0002 225.915 34.9092 225.493 34.9092C225.072 34.9092 224.75 34.9828 224.53 35.1298C224.313 35.2768 224.205 35.4916 224.205 35.7741C224.205 35.9753 224.272 36.1339 224.408 36.25C224.547 36.3623 224.805 36.4609 225.18 36.5461L226.19 36.784C226.91 36.9543 227.405 37.1729 227.676 37.4399C227.947 37.7031 228.082 38.0803 228.082 38.5718C228.082 39.218 227.854 39.721 227.397 40.0809C226.944 40.4369 226.31 40.6149 225.493 40.6149C224.696 40.6149 224.083 40.4253 223.653 40.0461C223.228 39.6669 223.009 39.1193 222.997 38.4035Z" fill="white"/>
<path d="M230.897 39.4134C230.82 39.3205 230.781 39.1348 230.781 38.8562V35.0369H231.901V34.2069H230.781V32.4714H229.736V34.2069H228.807V35.0369H229.736V39.2103C229.736 39.694 229.835 40.0306 230.032 40.2202C230.229 40.4098 230.574 40.5046 231.065 40.5046C231.174 40.5046 231.295 40.4969 231.431 40.4814C231.57 40.4659 231.727 40.4427 231.901 40.4118V39.5237C231.762 39.5353 231.648 39.543 231.559 39.5469C231.473 39.5508 231.4 39.5527 231.338 39.5527C231.125 39.5527 230.978 39.5063 230.897 39.4134Z" fill="white"/>
<path fill-rule="evenodd" clip-rule="evenodd" d="M237.322 38.4151H238.355C238.243 39.1 237.945 39.6398 237.461 40.0345C236.978 40.4292 236.368 40.6265 235.633 40.6265C234.77 40.6265 234.089 40.3363 233.59 39.7559C233.091 39.1754 232.841 38.3841 232.841 37.3819C232.841 36.3216 233.089 35.4935 233.584 34.8976C234.079 34.3017 234.762 34.0037 235.633 34.0037C236.527 34.0037 237.218 34.2785 237.705 34.828C238.197 35.3774 238.442 36.1533 238.442 37.1555C238.442 37.2832 238.44 37.378 238.437 37.4399C238.437 37.5018 238.433 37.5618 238.425 37.6199H233.938C233.95 38.2738 234.112 38.7807 234.426 39.1406C234.739 39.4966 235.174 39.6746 235.732 39.6746C236.157 39.6746 236.508 39.5663 236.782 39.3496C237.061 39.129 237.241 38.8175 237.322 38.4151ZM233.932 36.7492H237.345C237.341 36.1688 237.194 35.7218 236.904 35.4084C236.614 35.0911 236.202 34.9324 235.668 34.9324C235.153 34.9324 234.747 35.0872 234.449 35.3968C234.155 35.7064 233.983 36.1572 233.932 36.7492Z" fill="white"/>
<path d="M247.451 36.5983V40.4234H248.495V36.5112C248.495 36.0353 248.476 35.687 248.437 35.4664C248.399 35.2459 248.335 35.0563 248.246 34.8976C248.087 34.6229 247.859 34.4139 247.561 34.2707C247.263 34.1237 246.913 34.0502 246.51 34.0502C246.092 34.0502 245.723 34.1295 245.402 34.2882C245.08 34.4429 244.784 34.6887 244.514 35.0253C244.316 34.6887 244.08 34.4429 243.805 34.2882C243.531 34.1295 243.2 34.0502 242.813 34.0502C242.387 34.0502 242.016 34.1353 241.698 34.3056C241.381 34.4758 241.106 34.7351 240.874 35.0834V34.2069H239.876V40.4234H240.921V36.7492C240.921 36.192 241.062 35.7567 241.344 35.4432C241.627 35.1259 242.018 34.9673 242.517 34.9673C242.935 34.9673 243.229 35.0834 243.399 35.3155C243.569 35.5438 243.654 35.9714 243.654 36.5983V40.4234H244.717V36.7492C244.717 36.1842 244.856 35.747 245.135 35.4374C245.413 35.124 245.804 34.9673 246.307 34.9673C246.729 34.9673 247.025 35.0834 247.195 35.3155C247.365 35.5438 247.451 35.9714 247.451 36.5983Z" fill="white"/>
<path d="M249.894 38.4035H250.898C250.937 38.8252 251.088 39.1445 251.351 39.3612C251.618 39.5779 251.995 39.6862 252.483 39.6862C252.932 39.6862 253.286 39.5992 253.545 39.425C253.804 39.247 253.934 39.0052 253.934 38.6995C253.934 38.4712 253.868 38.297 253.736 38.1771C253.609 38.0533 253.357 37.9468 252.982 37.8578L251.815 37.556C251.157 37.3974 250.699 37.1884 250.44 36.9291C250.184 36.666 250.056 36.2926 250.056 35.8089C250.056 35.2594 250.263 34.8241 250.678 34.5029C251.095 34.1779 251.666 34.0154 252.39 34.0154C253.129 34.0154 253.717 34.1875 254.154 34.5319C254.592 34.8763 254.81 35.3388 254.81 35.9192V35.9424H253.794C253.771 35.6135 253.636 35.36 253.388 35.182C253.144 35.0002 252.812 34.9092 252.39 34.9092C251.968 34.9092 251.647 34.9828 251.426 35.1298C251.21 35.2768 251.101 35.4916 251.101 35.7741C251.101 35.9753 251.169 36.1339 251.304 36.25C251.444 36.3623 251.701 36.4609 252.076 36.5461L253.086 36.784C253.806 36.9543 254.301 37.1729 254.572 37.4399C254.843 37.7031 254.979 38.0803 254.979 38.5718C254.979 39.218 254.75 39.721 254.294 40.0809C253.841 40.4369 253.206 40.6149 252.39 40.6149C251.593 40.6149 250.979 40.4253 250.55 40.0461C250.124 39.6669 249.906 39.1193 249.894 38.4035Z" fill="white"/>
</svg>
