<svg width="271" height="41" viewBox="0 0 271 41" fill="none" xmlns="http://www.w3.org/2000/svg">
<path fill-rule="evenodd" clip-rule="evenodd" d="M40.3013 30.1845V8.46747C40.9557 7.59333 41.3659 6.51203 41.3659 5.32461C41.3659 2.48492 39.134 0.175781 36.3893 0.175781C33.6446 0.175781 31.4127 2.48492 31.4127 5.32461C31.4127 5.42978 31.426 5.53288 31.4391 5.63503C31.4455 5.68493 31.4519 5.73469 31.4567 5.78442L21.1713 29.174L11.096 5.67326C11.0997 5.62993 11.1054 5.58726 11.111 5.54455C11.1206 5.47272 11.1302 5.40065 11.1302 5.32461C11.1302 2.48492 8.89832 0.175781 6.15361 0.175781C3.4089 0.175781 1.177 2.48492 1.177 5.32461C1.177 6.51708 1.58724 7.60344 2.24656 8.47758V30.2249C0.893738 31.1446 0 32.7261 0 34.5249C0 37.3646 2.2319 39.6737 4.97661 39.6737C7.72131 39.6737 9.95322 37.3646 9.95322 34.5249C9.95322 32.6806 9.00088 31.0688 7.58945 30.1593L7.40875 10.2865C7.5455 10.2511 7.68224 10.2056 7.81411 10.1551L17.0103 31.6044C16.4536 32.433 16.1264 33.4385 16.1264 34.5198C16.1264 37.3595 18.3583 39.6687 21.103 39.6687C23.8477 39.6687 26.0796 37.3595 26.0796 34.5198C26.0796 33.4941 25.7817 32.5442 25.2835 31.7408L34.7044 10.145C34.846 10.1955 34.9877 10.241 35.1342 10.2814L34.9584 30.1946C33.5811 31.1142 32.663 32.7008 32.663 34.5198C32.663 37.3595 34.8949 39.6687 37.6396 39.6687C40.3843 39.6687 42.6162 37.3595 42.6162 34.5198C42.6211 32.7008 41.6883 31.0991 40.3013 30.1845ZM8.78599 34.5502C8.78599 36.7279 7.08153 38.4914 4.97661 38.4914C2.87168 38.4914 1.16723 36.7279 1.16723 34.5502C1.16723 32.3724 2.87168 30.609 4.97661 30.609C7.08153 30.609 8.78599 32.3774 8.78599 34.5502ZM6.15361 9.31635C4.04868 9.31635 2.34423 7.55291 2.34423 5.37514C2.34423 3.45507 3.67263 1.85837 5.43081 1.50973C5.66523 1.4592 5.90454 1.43394 6.14873 1.43394C6.3978 1.43394 6.63711 1.4592 6.87153 1.50973C8.62971 1.85837 9.9581 3.45507 9.9581 5.37514C9.96299 7.55291 8.25854 9.31635 6.15361 9.31635ZM21.1079 38.4914C19.0029 38.4914 17.2985 36.7279 17.2985 34.5502C17.2985 32.3724 19.0029 30.609 21.1079 30.609C23.2128 30.609 24.9172 32.3724 24.9172 34.5502C24.9124 36.7279 23.2079 38.4914 21.1079 38.4914ZM32.5751 5.37514C32.5751 3.45507 33.9035 1.85837 35.6616 1.50973C35.8961 1.4592 36.1354 1.43394 36.3796 1.43394C36.6286 1.43394 36.8679 1.4592 37.1024 1.50973C38.8605 1.85837 40.1889 3.45507 40.1889 5.37514C40.1889 7.55291 38.4845 9.31635 36.3796 9.31635C34.2844 9.31635 32.5751 7.55291 32.5751 5.37514ZM37.6396 38.4914C35.5347 38.4914 33.8302 36.7279 33.8302 34.5502C33.8302 32.3724 35.5347 30.609 37.6396 30.609C39.7445 30.609 41.449 32.3724 41.449 34.5502C41.449 36.7279 39.7445 38.4914 37.6396 38.4914Z" fill="white"/>
<path d="M58.3 0.601042C58.3 0.387076 58.1265 0.213623 57.9126 0.213623C57.6986 0.213623 57.5251 0.387076 57.5251 0.601042L57.5251 39.3C57.5251 39.514 57.6986 39.6875 57.9126 39.6875C58.1265 39.6875 58.3 39.514 58.3 39.3L58.3 0.601042Z" fill="white"/>
<path d="M140.332 12.2383H142.381C142.402 13.3706 142.778 14.2729 143.506 14.9452C144.242 15.6175 145.223 15.9537 146.447 15.9537C147.657 15.9537 148.609 15.6989 149.303 15.1894C150.003 14.6798 150.354 13.9863 150.354 13.1087C150.354 11.9127 149.044 11.0033 146.426 10.3805C146.27 10.3452 146.15 10.3168 146.065 10.2956C143.942 9.79315 142.537 9.23406 141.85 8.61836C141.171 7.99558 140.831 7.11448 140.831 5.97508C140.831 4.58091 141.341 3.46274 142.36 2.62057C143.379 1.77133 144.734 1.34671 146.426 1.34671C148.153 1.34671 149.511 1.79256 150.502 2.68426C151.424 3.50738 151.923 4.61848 151.999 6.01754H154.039L157.192 15.2106L160.344 6.01754H162.478L157.691 19.149C157.238 20.3875 156.781 21.1978 156.321 21.5799C155.861 21.9621 155.196 22.1532 154.325 22.1532C154.134 22.1532 153.943 22.1355 153.752 22.1001C153.568 22.0718 153.381 22.0293 153.19 21.9727V20.1468C153.381 20.2035 153.568 20.2459 153.752 20.2742C153.936 20.3025 154.12 20.3167 154.304 20.3167C154.672 20.3167 154.969 20.2424 155.196 20.0938C155.422 19.9452 155.596 19.7081 155.716 19.3825L156.215 18.0344L152.009 6.30792L152.01 6.33601L149.982 6.34662C149.911 5.29922 149.554 4.49598 148.91 3.9369C148.273 3.37781 147.399 3.09827 146.288 3.09827C145.247 3.09827 144.416 3.32827 143.793 3.78828C143.17 4.24121 142.859 4.84629 142.859 5.60354C142.859 6.81371 144.147 7.71603 146.723 8.3105L147.604 8.52282C147.647 8.52989 147.721 8.54759 147.827 8.57589C149.511 8.97928 150.63 9.41453 151.182 9.88161C151.599 10.2355 151.918 10.6672 152.137 11.1767C152.356 11.6792 152.466 12.2418 152.466 12.8646C152.466 14.372 151.925 15.5715 150.842 16.4633C149.766 17.355 148.308 17.8008 146.468 17.8008C144.572 17.8008 143.092 17.3231 142.031 16.3677C140.976 15.4052 140.41 14.0288 140.332 12.2383Z" fill="white"/>
<path d="M75.6797 17.4441V1.75637H80.4509L83.5714 13.6952L86.6493 1.75637H91.4419V17.4441H88.4173V4.79167L85.2329 17.4441H81.9313L78.7043 4.79167V17.4441H75.6797Z" fill="white"/>
<path d="M93.8443 1.75651V4.5788H96.9435V1.75651H93.8443Z" fill="white"/>
<path d="M93.8443 5.86748V17.4442H96.9435V5.86748H93.8443Z" fill="white"/>
<path d="M105.64 1.75651V17.4442H108.654V13.7806L109.826 12.5132L112.595 17.4442H116.312L112.031 10.1595L116.067 5.86748H112.339L108.654 9.9891V1.75651H105.64Z" fill="white"/>
<path fill-rule="evenodd" clip-rule="evenodd" d="M115.562 11.64C115.562 9.71584 116.084 8.2035 117.128 7.10298C118.172 6.00246 119.606 5.45221 121.431 5.45221C123.248 5.45221 124.679 6.00246 125.723 7.10298C126.774 8.2035 127.299 9.71584 127.299 11.64C127.299 13.5712 126.774 15.0871 125.723 16.1876C124.679 17.2881 123.248 17.8384 121.431 17.8384C119.606 17.8384 118.172 17.2881 117.128 16.1876C116.084 15.0871 115.562 13.5712 115.562 11.64ZM118.704 11.64C118.704 12.7902 118.939 13.6777 119.407 14.3025C119.883 14.9273 120.557 15.2397 121.431 15.2397C122.29 15.2397 122.954 14.9273 123.422 14.3025C123.898 13.6777 124.136 12.7902 124.136 11.64C124.136 10.4969 123.902 9.61643 123.433 8.99872C122.964 8.37391 122.297 8.0615 121.431 8.0615C120.557 8.0615 119.883 8.37391 119.407 8.99872C118.939 9.61643 118.704 10.4969 118.704 11.64Z" fill="white"/>
<path d="M130.746 17.444L126.582 5.86727H130.011L132.386 14.1744L134.782 5.86727H138.052L133.909 17.444H130.746Z" fill="white"/>
<path d="M104.213 17.5296C103.929 17.5367 103.588 17.5474 103.19 17.5616C102.8 17.5829 102.551 17.5935 102.445 17.5935C101.259 17.5935 100.446 17.3734 100.006 16.9332C99.5728 16.4859 99.3562 15.609 99.3562 14.3026V8.04029H97.8226V5.86765H99.3562V2.70455H102.423V5.86765H104.213V8.04029H102.423V14.4517C102.423 14.757 102.491 14.9594 102.626 15.0588C102.761 15.1511 103.038 15.1972 103.457 15.1972H104.213V17.5296Z" fill="white"/>
<path d="M259.838 2.17875V16.886H261.186V9.76701H269.593V16.886H270.961V2.17875H269.593V8.55888H261.186V2.17875H259.838Z" fill="white"/>
<path fill-rule="evenodd" clip-rule="evenodd" d="M248.994 16.886V2.17875H250.222V8.15949C250.621 7.44061 251.131 6.90144 251.75 6.542C252.369 6.18255 253.101 6.00283 253.946 6.00283C255.397 6.00283 256.542 6.50206 257.381 7.50051C258.226 8.49897 258.649 9.86353 258.649 11.5942C258.649 13.3182 258.22 14.6794 257.361 15.6779C256.509 16.6763 255.344 17.1755 253.866 17.1755C253.048 17.1755 252.325 16.9958 251.7 16.6364C251.081 16.2703 250.588 15.7411 250.222 15.0488V16.886H248.994ZM250.162 11.5942C250.162 13.0053 250.478 14.107 251.111 14.8991C251.75 15.6912 252.632 16.0872 253.757 16.0872C254.908 16.0872 255.793 15.7012 256.412 14.929C257.032 14.1502 257.341 13.0386 257.341 11.5942C257.341 10.1564 257.028 9.04812 256.402 8.26932C255.783 7.48387 254.901 7.09115 253.757 7.09115C252.605 7.09115 251.716 7.48055 251.091 8.25934C250.472 9.03813 250.162 10.1498 250.162 11.5942Z" fill="white"/>
<path d="M233.167 6.27241V16.886H234.395V10.3261C234.395 9.36763 234.682 8.59216 235.254 7.99974C235.833 7.40732 236.589 7.11112 237.521 7.11112C238.279 7.11112 238.842 7.32412 239.208 7.75013C239.574 8.17614 239.757 8.82847 239.757 9.70711V16.886H240.985V10.2363C240.985 9.29774 241.268 8.53891 241.834 7.9598C242.4 7.3807 243.152 7.09115 244.09 7.09115C244.882 7.09115 245.452 7.28418 245.798 7.67025C246.144 8.05632 246.317 8.69534 246.317 9.58729V16.886H247.565V9.48745C247.565 8.31593 247.279 7.44393 246.706 6.87149C246.141 6.29238 245.282 6.00283 244.13 6.00283C243.371 6.00283 242.699 6.18255 242.113 6.542C241.534 6.89478 241.068 7.41065 240.716 8.0896C240.543 7.42397 240.193 6.91143 239.667 6.55198C239.141 6.18588 238.482 6.00283 237.69 6.00283C236.951 6.00283 236.292 6.17923 235.713 6.53201C235.141 6.87814 234.675 7.37737 234.315 8.02969V6.27241H233.167Z" fill="white"/>
<path d="M230.59 16.886L230.45 14.29C229.998 15.2352 229.319 15.9741 228.413 16.5066C227.515 17.0324 226.483 17.2954 225.318 17.2954C223.275 17.2954 221.664 16.5998 220.486 15.2086C219.314 13.8174 218.728 11.917 218.728 9.50741C218.728 7.11778 219.327 5.23735 220.526 3.86614C221.724 2.48827 223.348 1.79934 225.398 1.79934C227.109 1.79934 228.497 2.20871 229.562 3.02744C230.633 3.83952 231.276 4.98441 231.489 6.46212H230.101C229.894 5.37713 229.375 4.52512 228.543 3.90608C227.711 3.28704 226.669 2.97752 225.418 2.97752C223.721 2.97752 222.409 3.54331 221.484 4.67489C220.566 5.79981 220.106 7.404 220.106 9.48745C220.106 11.5043 220.569 13.1019 221.494 14.28C222.419 15.4582 223.674 16.0473 225.258 16.0473C226.876 16.0473 228.134 15.5714 229.032 14.6195C229.938 13.6676 230.39 12.3297 230.39 10.6057V10.5458H225.538V9.33768H231.678V16.886H230.59Z" fill="white"/>
<path d="M207.896 13.6926H206.06C206.081 15.0018 206.481 16.0032 207.259 16.6968C208.045 17.3903 209.166 17.7371 210.624 17.7371C212.118 17.7371 213.278 17.4116 214.106 16.7605C214.941 16.1023 215.359 15.1823 215.359 14.0004C215.359 13.1017 215.111 12.4117 214.616 11.9304C214.12 11.4421 213.215 11.0422 211.898 10.7309L210.051 10.2956C209.365 10.1399 208.894 9.95946 208.639 9.75422C208.392 9.54191 208.268 9.25175 208.268 8.88375C208.268 8.36712 208.466 7.97434 208.862 7.70542C209.266 7.43649 209.853 7.30203 210.624 7.30203C211.396 7.30203 212.004 7.46833 212.45 7.80096C212.903 8.1265 213.151 8.59005 213.193 9.1916H215.051V9.14913C215.051 8.08758 214.651 7.24187 213.851 6.61201C213.052 5.98216 211.976 5.66723 210.624 5.66723C209.301 5.66723 208.257 5.96446 207.493 6.55894C206.736 7.14633 206.357 7.9425 206.357 8.94744C206.357 9.83207 206.59 10.515 207.058 10.9962C207.532 11.4704 208.37 11.8526 209.573 12.1427L211.707 12.6947C212.394 12.8575 212.854 13.0521 213.087 13.2786C213.328 13.498 213.448 13.8164 213.448 14.234C213.448 14.7931 213.211 15.2354 212.737 15.5609C212.263 15.8794 211.615 16.0386 210.794 16.0386C209.902 16.0386 209.212 15.8405 208.724 15.4442C208.243 15.0478 207.967 14.464 207.896 13.6926Z" fill="white"/>
<path d="M202.678 17.3868V10.3912C202.678 9.24468 202.522 8.46266 202.211 8.04511C201.899 7.62049 201.358 7.40818 200.587 7.40818C199.667 7.40818 198.952 7.6948 198.442 8.26804C197.933 8.8342 197.678 9.63391 197.678 10.6672V17.3868H195.735V10.3912C195.735 9.24468 195.58 8.46266 195.268 8.04511C194.957 7.62049 194.419 7.40818 193.655 7.40818C192.742 7.40818 192.027 7.69834 191.51 8.27866C190.994 8.8519 190.735 9.64807 190.735 10.6672V17.3868H188.825V6.01754H190.651V7.62049C191.075 6.98356 191.578 6.5094 192.158 6.19801C192.738 5.88662 193.418 5.73092 194.196 5.73092C194.904 5.73092 195.509 5.876 196.011 6.16616C196.514 6.44924 196.946 6.89863 197.307 7.51434C197.802 6.89863 198.343 6.44924 198.931 6.16616C199.518 5.876 200.194 5.73092 200.958 5.73092C201.694 5.73092 202.335 5.86539 202.88 6.13431C203.425 6.39616 203.842 6.77833 204.132 7.28079C204.295 7.57095 204.412 7.91773 204.483 8.32112C204.553 8.72451 204.589 9.36145 204.589 10.2319V17.3868H202.678Z" fill="white"/>
<path fill-rule="evenodd" clip-rule="evenodd" d="M187.131 13.7138H185.241C185.093 14.4498 184.764 15.0195 184.254 15.4229C183.752 15.8192 183.111 16.0174 182.333 16.0174C181.314 16.0174 180.517 15.6919 179.944 15.0408C179.371 14.3826 179.074 13.4555 179.052 12.2595H187.258C187.272 12.1533 187.279 12.0436 187.279 11.9304C187.287 11.8172 187.29 11.6438 187.29 11.4103C187.29 9.5773 186.841 8.15834 185.942 7.15341C185.05 6.14847 183.787 5.646 182.152 5.646C180.56 5.646 179.311 6.19093 178.405 7.28079C177.499 8.37066 177.046 9.88515 177.046 11.8243C177.046 13.6572 177.503 15.1045 178.415 16.166C179.328 17.2276 180.574 17.7584 182.152 17.7584C183.497 17.7584 184.611 17.3974 185.496 16.6756C186.381 15.9537 186.926 14.9665 187.131 13.7138ZM185.284 10.6672H179.042C179.134 9.58438 179.449 8.75989 179.987 8.19373C180.532 7.62757 181.275 7.34449 182.216 7.34449C183.192 7.34449 183.946 7.63465 184.477 8.21496C185.008 8.7882 185.277 9.60561 185.284 10.6672Z" fill="white"/>
<path d="M175.017 14.5206C175.017 15.0302 175.088 15.3699 175.23 15.5397C175.378 15.7095 175.647 15.7945 176.036 15.7945C176.15 15.7945 176.284 15.7909 176.44 15.7839C176.603 15.7768 176.811 15.7626 177.066 15.7414V17.3656C176.748 17.4222 176.461 17.4647 176.206 17.493C175.958 17.5213 175.736 17.5354 175.537 17.5354C174.639 17.5354 174.009 17.362 173.648 17.0153C173.287 16.6685 173.106 16.0528 173.106 15.1682V7.53557H171.408V6.01754H173.106V2.8435H175.017V6.01754H177.066V7.53557H175.017V14.5206Z" fill="white"/>
<path d="M163.923 13.6926H162.087C162.108 15.0018 162.508 16.0032 163.286 16.6968C164.072 17.3903 165.193 17.7371 166.651 17.7371C168.145 17.7371 169.305 17.4116 170.133 16.7605C170.968 16.1023 171.386 15.1823 171.386 14.0004C171.386 13.1017 171.138 12.4117 170.643 11.9304C170.147 11.4421 169.242 11.0422 167.925 10.7309L166.078 10.2956C165.392 10.1399 164.921 9.95946 164.666 9.75422C164.419 9.54191 164.295 9.25175 164.295 8.88375C164.295 8.36712 164.493 7.97434 164.889 7.70542C165.293 7.43649 165.88 7.30203 166.651 7.30203C167.423 7.30203 168.031 7.46833 168.477 7.80096C168.93 8.1265 169.178 8.59005 169.22 9.1916H171.078V9.14913C171.078 8.08758 170.678 7.24187 169.878 6.61201C169.079 5.98216 168.003 5.66723 166.651 5.66723C165.328 5.66723 164.284 5.96446 163.52 6.55894C162.763 7.14633 162.384 7.9425 162.384 8.94744C162.384 9.83207 162.617 10.515 163.085 10.9962C163.559 11.4704 164.397 11.8526 165.6 12.1427L167.734 12.6947C168.421 12.8575 168.881 13.0521 169.114 13.2786C169.355 13.498 169.475 13.8164 169.475 14.234C169.475 14.7931 169.238 15.2354 168.764 15.5609C168.29 15.8794 167.642 16.0386 166.821 16.0386C165.929 16.0386 165.239 15.8405 164.751 15.4442C164.27 15.0478 163.994 14.464 163.923 13.6926Z" fill="white"/>
<path fill-rule="evenodd" clip-rule="evenodd" d="M269.9 37.6716V27.7949H268.733V31.3688C268.452 30.9977 268.117 30.7206 267.728 30.5373C267.343 30.3496 266.901 30.2557 266.4 30.2557C265.448 30.2557 264.686 30.6044 264.114 31.3017C263.541 31.9946 263.255 32.9288 263.255 34.1045C263.255 35.2577 263.539 36.1786 264.107 36.867C264.679 37.5509 265.443 37.8929 266.4 37.8929C266.869 37.8929 267.298 37.799 267.687 37.6112C268.076 37.4235 268.425 37.1419 268.733 36.7664V37.6716H269.9ZM268.231 32.0192C268.593 32.4706 268.774 33.1412 268.774 34.0307C268.774 34.9247 268.588 35.6131 268.217 36.0959C267.846 36.5787 267.323 36.82 266.648 36.82C265.982 36.82 265.457 36.5854 265.072 36.116C264.692 35.6466 264.502 35.0029 264.502 34.1849C264.502 33.2775 264.688 32.5779 265.059 32.0862C265.43 31.59 265.955 31.3419 266.635 31.3419C267.341 31.3419 267.873 31.5677 268.231 32.0192Z" fill="white"/>
<path d="M259.064 37.6726V30.4914H260.231V31.7788C260.423 31.296 260.682 30.9362 261.009 30.6992C261.339 30.4579 261.744 30.3372 262.222 30.3372C262.312 30.3372 262.377 30.3394 262.417 30.3439C262.457 30.3439 262.497 30.3483 262.537 30.3573V31.6313C262.506 31.6268 262.47 31.6245 262.43 31.6245C262.39 31.6201 262.33 31.6178 262.249 31.6178C261.605 31.6178 261.114 31.7944 260.774 32.1475C260.439 32.4962 260.271 33.0058 260.271 33.6763V37.6726H259.064Z" fill="white"/>
<path fill-rule="evenodd" clip-rule="evenodd" d="M254.847 37.5973C255.272 37.4006 255.672 37.1055 256.047 36.7122V36.7524C256.047 37.1055 256.148 37.3693 256.349 37.5436C256.55 37.7179 256.852 37.8051 257.254 37.8051C257.352 37.8051 257.455 37.7962 257.563 37.7783C257.674 37.7649 257.804 37.7381 257.951 37.6978V36.7658C257.88 36.7792 257.817 36.7904 257.764 36.7993C257.715 36.8038 257.672 36.806 257.636 36.806C257.462 36.806 257.341 36.7613 257.274 36.6719C257.207 36.5825 257.174 36.3836 257.174 36.0752V32.4812C257.174 31.7168 256.946 31.1559 256.49 30.7982C256.038 30.4362 255.332 30.2551 254.371 30.2551C253.477 30.2551 252.775 30.4652 252.265 30.8854C251.756 31.3056 251.501 31.8778 251.501 32.6019V32.6556H252.641C252.641 32.2175 252.782 31.8867 253.063 31.6632C253.349 31.4397 253.772 31.3279 254.331 31.3279C254.872 31.3279 255.276 31.4196 255.544 31.6029C255.813 31.7861 255.947 32.061 255.947 32.4276C255.947 32.7182 255.924 32.9081 255.88 32.9975C255.835 33.0825 255.743 33.1517 255.605 33.2054C255.466 33.2635 255.091 33.3238 254.478 33.3864C254.121 33.4267 253.837 33.458 253.627 33.4803C252.8 33.5876 252.183 33.8267 251.776 34.1978C251.374 34.5688 251.173 35.0806 251.173 35.7332C251.173 36.4082 251.378 36.9379 251.789 37.3223C252.201 37.7023 252.773 37.8923 253.506 37.8923C253.98 37.8923 254.427 37.7939 254.847 37.5973ZM254.277 34.4257C255.059 34.3274 255.611 34.191 255.933 34.0167V35.0895C255.933 35.5991 255.725 36.0171 255.31 36.3434C254.894 36.6697 254.362 36.8329 253.714 36.8329C253.298 36.8329 252.978 36.7368 252.755 36.5445C252.531 36.3523 252.42 36.0774 252.42 35.7198C252.42 35.3622 252.516 35.0895 252.708 34.9018C252.9 34.714 253.215 34.5844 253.653 34.5129C253.792 34.4905 254 34.4615 254.277 34.4257Z" fill="white"/>
<path d="M242.925 37.6705L240.779 30.4893H242.033L243.555 35.9808L244.97 30.4893H246.372L247.773 35.9808L249.349 30.4893H250.589L248.403 37.6705H247.183L245.667 32.1387L244.145 37.6705H242.925Z" fill="white"/>
<path d="M237.045 30.4914V37.6726H238.252V33.6763C238.252 33.0058 238.419 32.4962 238.755 32.1475C239.094 31.7944 239.586 31.6178 240.23 31.6178C240.31 31.6178 240.37 31.6201 240.411 31.6245C240.436 31.6245 240.46 31.6254 240.482 31.6272C240.494 31.6283 240.506 31.6296 240.518 31.6313V30.3573C240.478 30.3483 240.437 30.3439 240.397 30.3439C240.357 30.3394 240.292 30.3372 240.203 30.3372C239.724 30.3372 239.32 30.4579 238.989 30.6992C238.663 30.9362 238.404 31.296 238.211 31.7788V30.4914H237.045Z" fill="white"/>
<path fill-rule="evenodd" clip-rule="evenodd" d="M228.697 34.0704C228.697 32.8679 228.996 31.9314 229.595 31.2609C230.199 30.5904 231.044 30.2551 232.13 30.2551C233.221 30.2551 234.068 30.5904 234.671 31.2609C235.275 31.9269 235.576 32.8634 235.576 34.0704C235.576 35.2773 235.275 36.216 234.671 36.8865C234.072 37.557 233.23 37.8923 232.143 37.8923C231.053 37.8923 230.206 37.5593 229.602 36.8932C228.999 36.2227 228.697 35.2817 228.697 34.0704ZM229.931 34.0704C229.931 34.9599 230.121 35.6416 230.501 36.1154C230.885 36.5848 231.433 36.8195 232.143 36.8195C232.85 36.8195 233.391 36.5848 233.766 36.1154C234.142 35.6416 234.329 34.9599 234.329 34.0704C234.329 33.1853 234.142 32.5081 233.766 32.0387C233.391 31.5649 232.85 31.3279 232.143 31.3279C231.428 31.3279 230.881 31.5626 230.501 32.032C230.121 32.5014 229.931 33.1808 229.931 34.0704Z" fill="white"/>
<path d="M221.509 27.7949V37.6716H222.85V33.206H227.47V31.999H222.85V29.0354H228.14V27.7949H221.509Z" fill="white"/>
<path d="M214.562 37.6721V33.2534C214.562 32.5471 214.453 32.0599 214.234 31.7917C214.019 31.519 213.648 31.3826 213.121 31.3826C212.446 31.3826 211.921 31.5749 211.545 31.9593C211.174 32.3392 210.989 32.8801 210.989 33.5819V37.6721H209.782V30.4909H210.935V31.5369C211.212 31.1211 211.541 30.8127 211.921 30.6115C212.301 30.4104 212.741 30.3098 213.242 30.3098C213.782 30.3098 214.238 30.3925 214.609 30.5579C214.98 30.7188 215.266 30.9624 215.468 31.2888C215.579 31.4631 215.66 31.6687 215.709 31.9056C215.758 32.1381 215.783 32.5091 215.783 33.0187V37.6721H214.562Z" fill="white"/>
<path fill-rule="evenodd" clip-rule="evenodd" d="M202.332 31.2609C201.733 31.9314 201.433 32.8679 201.433 34.0704C201.433 35.2817 201.735 36.2227 202.339 36.8932C202.942 37.5593 203.789 37.8923 204.88 37.8923C205.966 37.8923 206.809 37.557 207.408 36.8865C208.011 36.216 208.313 35.2773 208.313 34.0704C208.313 32.8634 208.011 31.9269 207.408 31.2609C206.804 30.5904 205.957 30.2551 204.867 30.2551C203.78 30.2551 202.935 30.5904 202.332 31.2609ZM203.237 36.1154C202.857 35.6416 202.667 34.9599 202.667 34.0704C202.667 33.1808 202.857 32.5014 203.237 32.032C203.617 31.5626 204.165 31.3279 204.88 31.3279C205.586 31.3279 206.127 31.5649 206.503 32.0387C206.878 32.5081 207.066 33.1853 207.066 34.0704C207.066 34.9599 206.878 35.6416 206.503 36.1154C206.127 36.5848 205.586 36.8195 204.88 36.8195C204.169 36.8195 203.622 36.5848 203.237 36.1154Z" fill="white"/>
<path d="M198.745 29.1695V27.7949H199.952V29.1695H198.745Z" fill="white"/>
<path d="M198.745 37.6716V30.4904H199.952V37.6716H198.745Z" fill="white"/>
<path d="M196.431 36.5069C196.342 36.3996 196.297 36.1851 196.297 35.8632V31.4512H197.591V30.4924H196.297V28.4875H195.09V30.4924H194.018V31.4512H195.09V36.2722C195.09 36.831 195.204 37.2199 195.432 37.4389C195.66 37.6579 196.058 37.7675 196.626 37.7675C196.751 37.7675 196.892 37.7585 197.048 37.7406C197.209 37.7228 197.39 37.6959 197.591 37.6602V36.6343C197.431 36.6477 197.299 36.6566 197.196 36.6611C197.098 36.6656 197.013 36.6678 196.941 36.6678C196.695 36.6678 196.525 36.6142 196.431 36.5069Z" fill="white"/>
<path fill-rule="evenodd" clip-rule="evenodd" d="M191.865 36.7122C191.49 37.1055 191.09 37.4006 190.665 37.5973C190.245 37.7939 189.798 37.8923 189.324 37.8923C188.591 37.8923 188.019 37.7023 187.608 37.3223C187.196 36.9379 186.991 36.4082 186.991 35.7332C186.991 35.0806 187.192 34.5688 187.594 34.1978C188.001 33.8267 188.618 33.5876 189.445 33.4803C189.655 33.458 189.939 33.4267 190.296 33.3864C190.909 33.3238 191.284 33.2635 191.423 33.2054C191.561 33.1517 191.653 33.0825 191.698 32.9975C191.742 32.9081 191.765 32.7182 191.765 32.4276C191.765 32.061 191.631 31.7861 191.362 31.6029C191.094 31.4196 190.69 31.3279 190.149 31.3279C189.59 31.3279 189.168 31.4397 188.882 31.6632C188.6 31.8867 188.459 32.2175 188.459 32.6556H187.319V32.6019C187.319 31.8778 187.574 31.3056 188.084 30.8854C188.593 30.4652 189.295 30.2551 190.189 30.2551C191.15 30.2551 191.856 30.4362 192.308 30.7982C192.764 31.1559 192.992 31.7168 192.992 32.4812V36.0752C192.992 36.3836 193.025 36.5825 193.092 36.6719C193.159 36.7613 193.28 36.806 193.454 36.806C193.49 36.806 193.533 36.8038 193.582 36.7993C193.636 36.7904 193.698 36.7792 193.77 36.7658V37.6978C193.622 37.7381 193.492 37.7649 193.381 37.7783C193.273 37.7962 193.171 37.8051 193.072 37.8051C192.67 37.8051 192.368 37.7179 192.167 37.5436C191.966 37.3693 191.865 37.1055 191.865 36.7524V36.7122ZM191.751 34.0167C191.43 34.191 190.877 34.3274 190.095 34.4257C189.818 34.4615 189.61 34.4905 189.472 34.5129C189.034 34.5844 188.718 34.714 188.526 34.9018C188.334 35.0895 188.238 35.3622 188.238 35.7198C188.238 36.0774 188.35 36.3523 188.573 36.5445C188.797 36.7368 189.116 36.8329 189.532 36.8329C190.18 36.8329 190.712 36.6697 191.128 36.3434C191.544 36.0171 191.751 35.5991 191.751 35.0895V34.0167Z" fill="white"/>
<path d="M179.91 30.4893L182.559 37.6705H183.839L186.461 30.4893H185.167L183.209 36.2423L181.204 30.4893H179.91Z" fill="white"/>
<path fill-rule="evenodd" clip-rule="evenodd" d="M172.468 34.0704C172.468 32.8679 172.767 31.9314 173.366 31.2609C173.969 30.5904 174.814 30.2551 175.901 30.2551C176.991 30.2551 177.838 30.5904 178.442 31.2609C179.045 31.9269 179.347 32.8634 179.347 34.0704C179.347 35.2773 179.045 36.216 178.442 36.8865C177.843 37.557 177 37.8923 175.914 37.8923C174.823 37.8923 173.976 37.5593 173.373 36.8932C172.769 36.2227 172.468 35.2817 172.468 34.0704ZM173.701 34.0704C173.701 34.9599 173.891 35.6416 174.271 36.1154C174.656 36.5848 175.203 36.8195 175.914 36.8195C176.62 36.8195 177.161 36.5848 177.537 36.1154C177.912 35.6416 178.1 34.9599 178.1 34.0704C178.1 33.1853 177.912 32.5081 177.537 32.0387C177.161 31.5649 176.62 31.3279 175.914 31.3279C175.199 31.3279 174.651 31.5626 174.271 32.032C173.891 32.5014 173.701 33.1808 173.701 34.0704Z" fill="white"/>
<path d="M169.799 33.2534V37.6721H171.019V33.0187C171.019 32.5091 170.995 32.1381 170.946 31.9056C170.896 31.6687 170.816 31.4631 170.704 31.2888C170.503 30.9624 170.217 30.7188 169.846 30.5579C169.475 30.3925 169.019 30.3098 168.478 30.3098C167.977 30.3098 167.537 30.4104 167.157 30.6115C166.777 30.8127 166.449 31.1211 166.172 31.5369V30.4909H165.018V37.6721H166.225V33.5819C166.225 32.8801 166.411 32.3392 166.782 31.9593C167.157 31.5749 167.682 31.3826 168.357 31.3826C168.885 31.3826 169.256 31.519 169.47 31.7917C169.689 32.0599 169.799 32.5471 169.799 33.2534Z" fill="white"/>
<path d="M161.981 37.6721V33.2534C161.981 32.5471 161.871 32.0599 161.652 31.7917C161.438 31.519 161.067 31.3826 160.539 31.3826C159.864 31.3826 159.339 31.5749 158.964 31.9593C158.593 32.3392 158.407 32.8801 158.407 33.5819V37.6721H157.2V30.4909H158.353V31.5369C158.631 31.1211 158.959 30.8127 159.339 30.6115C159.719 30.4104 160.159 30.3098 160.66 30.3098C161.201 30.3098 161.657 30.3925 162.028 30.5579C162.399 30.7188 162.685 30.9624 162.886 31.2888C162.998 31.4631 163.078 31.6687 163.128 31.9056C163.177 32.1381 163.201 32.5091 163.201 33.0187V37.6721H161.981Z" fill="white"/>
<path d="M153.841 27.7949V37.6716H155.182V27.7949H153.841Z" fill="white"/>
<path d="M145.345 37.6726V30.4914H146.512V31.7788C146.704 31.296 146.963 30.9362 147.29 30.6992C147.62 30.4579 148.025 30.3372 148.503 30.3372C148.593 30.3372 148.657 30.3394 148.698 30.3439C148.738 30.3439 148.778 30.3483 148.818 30.3573V31.6313C148.787 31.6268 148.751 31.6245 148.711 31.6245C148.671 31.6201 148.61 31.6178 148.53 31.6178C147.886 31.6178 147.395 31.7944 147.055 32.1475C146.72 32.4962 146.552 33.0058 146.552 33.6763V37.6726H145.345Z" fill="white"/>
<path d="M138.721 34.8945V30.4893H137.5V35.1426C137.5 35.6522 137.525 36.0255 137.574 36.2624C137.623 36.4948 137.704 36.6982 137.815 36.8726C138.012 37.1855 138.296 37.4268 138.667 37.5967C139.038 37.7666 139.474 37.8515 139.974 37.8515C140.511 37.8515 140.978 37.7465 141.376 37.5364C141.774 37.3263 142.098 37.0134 142.348 36.5976V37.6705H143.501V30.4893H142.294V34.3581C142.294 35.1538 142.116 35.7573 141.758 36.1685C141.4 36.5753 140.873 36.7787 140.176 36.7787C139.648 36.7787 139.273 36.6423 139.049 36.3697C138.83 36.0925 138.721 35.6008 138.721 34.8945Z" fill="white"/>
<path fill-rule="evenodd" clip-rule="evenodd" d="M129.179 34.0704C129.179 32.8679 129.479 31.9314 130.078 31.2609C130.681 30.5904 131.526 30.2551 132.612 30.2551C133.703 30.2551 134.55 30.5904 135.153 31.2609C135.757 31.9269 136.059 32.8634 136.059 34.0704C136.059 35.2773 135.757 36.216 135.153 36.8865C134.554 37.557 133.712 37.8923 132.625 37.8923C131.535 37.8923 130.688 37.5593 130.084 36.8932C129.481 36.2227 129.179 35.2817 129.179 34.0704ZM130.413 34.0704C130.413 34.9599 130.603 35.6416 130.983 36.1154C131.367 36.5848 131.915 36.8195 132.625 36.8195C133.332 36.8195 133.873 36.5848 134.248 36.1154C134.624 35.6416 134.811 34.9599 134.811 34.0704C134.811 33.1853 134.624 32.5081 134.248 32.0387C133.873 31.5649 133.332 31.3279 132.625 31.3279C131.91 31.3279 131.363 31.5626 130.983 32.032C130.603 32.5014 130.413 33.1808 130.413 34.0704Z" fill="white"/>
<path d="M125.142 37.6716H126.49V33.6217L130.004 27.7949H128.428L125.806 32.4684L123.164 27.7949H121.481L125.142 33.7156V37.6716Z" fill="white"/>
<path fill-rule="evenodd" clip-rule="evenodd" d="M115.735 36.7926C115.454 37.1637 115.123 37.443 114.743 37.6308C114.367 37.8141 113.938 37.9057 113.456 37.9057C112.486 37.9057 111.705 37.5548 111.115 36.853C110.525 36.1467 110.23 35.2147 110.23 34.0569C110.23 32.9126 110.525 31.994 111.115 31.3011C111.71 30.6038 112.494 30.2551 113.469 30.2551C113.943 30.2551 114.358 30.3468 114.716 30.53C115.078 30.7088 115.413 30.9972 115.722 31.395V30.4898H116.902V37.5168C116.902 38.6254 116.638 39.4255 116.111 39.9172C115.583 40.4134 114.732 40.6615 113.556 40.6615C112.604 40.6615 111.86 40.476 111.323 40.105C110.787 39.734 110.519 39.2199 110.519 38.5628V38.5092H111.699V38.536C111.699 38.907 111.855 39.1841 112.168 39.3674C112.486 39.5552 112.962 39.649 113.596 39.649C114.356 39.649 114.902 39.5038 115.232 39.2132C115.568 38.9226 115.735 38.4443 115.735 37.7783V36.7926ZM113.61 31.3414C112.93 31.3414 112.407 31.5783 112.041 32.0521C111.674 32.5259 111.491 33.2032 111.491 34.0838C111.491 34.9465 111.679 35.6192 112.054 36.102C112.43 36.5803 112.953 36.8195 113.623 36.8195C114.356 36.8195 114.897 36.6004 115.246 36.1624C115.599 35.7198 115.775 35.0426 115.775 34.1307C115.775 33.2099 115.592 32.5148 115.226 32.0454C114.864 31.576 114.325 31.3414 113.61 31.3414Z" fill="white"/>
<path d="M107.535 33.2534V37.6721H108.755V33.0187C108.755 32.5091 108.731 32.1381 108.681 31.9056C108.632 31.6687 108.552 31.4631 108.44 31.2888C108.239 30.9624 107.953 30.7188 107.582 30.5579C107.211 30.3925 106.755 30.3098 106.214 30.3098C105.713 30.3098 105.273 30.4104 104.893 30.6115C104.513 30.8127 104.184 31.1211 103.907 31.5369V30.4909H102.754V37.6721H103.961V33.5819C103.961 32.8801 104.146 32.3392 104.517 31.9593C104.893 31.5749 105.418 31.3826 106.093 31.3826C106.621 31.3826 106.992 31.519 107.206 31.7917C107.425 32.0599 107.535 32.5471 107.535 33.2534Z" fill="white"/>
<path d="M99.6965 29.1695V27.7949H100.903V29.1695H99.6965Z" fill="white"/>
<path d="M99.6965 37.6716V30.4904H100.903V37.6716H99.6965Z" fill="white"/>
<path d="M92.1802 30.4893L94.8287 37.6705H96.1094L98.7311 30.4893H97.437L95.4791 36.2423L93.4743 30.4893H92.1802Z" fill="white"/>
<path d="M90.0277 29.1695V27.7949H91.2346V29.1695H90.0277Z" fill="white"/>
<path d="M90.0277 37.6716V30.4904H91.2346V37.6716H90.0277Z" fill="white"/>
<path d="M85.4684 30.4914V37.6726H86.6753V33.6763C86.6753 33.0058 86.8429 32.4962 87.1782 32.1475C87.5179 31.7944 88.0096 31.6178 88.6533 31.6178C88.7338 31.6178 88.7941 31.6201 88.8344 31.6245C88.8746 31.6245 88.9104 31.6268 88.9417 31.6313V30.3573C88.9014 30.3483 88.8612 30.3439 88.821 30.3439C88.7807 30.3394 88.7159 30.3372 88.6265 30.3372C88.1482 30.3372 87.7437 30.4579 87.4129 30.6992C87.0866 30.9362 86.8273 31.296 86.6351 31.7788V30.4914H85.4684Z" fill="white"/>
<path fill-rule="evenodd" clip-rule="evenodd" d="M75.9 37.6716V27.7949H79.6616C81.0384 27.7949 82.0911 28.2062 82.8197 29.0287C83.5528 29.8512 83.9194 31.038 83.9194 32.5891C83.9194 34.1939 83.5394 35.4433 82.7795 36.3373C82.0241 37.2268 80.9669 37.6716 79.608 37.6716H75.9ZM79.5476 28.9348H77.2411V36.4647H79.5476C80.5355 36.4647 81.282 36.1451 81.7871 35.5058C82.2923 34.8621 82.5448 33.9122 82.5448 32.6562C82.5448 31.4537 82.2878 30.5329 81.7737 29.8936C81.2597 29.2544 80.5176 28.9348 79.5476 28.9348Z" fill="white"/>
</svg>
