<svg width="17" height="19" viewBox="0 0 17 19" fill="none" xmlns="http://www.w3.org/2000/svg">
<path fill-rule="evenodd" clip-rule="evenodd" d="M8.49923 0C6.92168 0 5.40848 0.637195 4.29192 1.77118C3.17686 2.90517 2.54978 4.44316 2.54978 6.04701C2.54978 8.94305 1.94058 10.7416 1.37781 11.7881C1.09642 12.3137 0.822535 12.6584 0.630954 12.8629C0.535163 12.9656 0.460308 13.0336 0.415406 13.0718C0.392955 13.091 0.37799 13.1028 0.370506 13.1077L0.369045 13.1095C0.0637126 13.3223 -0.0710158 13.7114 0.0367484 14.0719C0.144513 14.4362 0.475288 14.6854 0.84947 14.6854H16.149C16.5247 14.6854 16.854 14.4362 16.9633 14.0719C17.071 13.7114 16.9362 13.3223 16.6309 13.1095L16.628 13.1077C16.622 13.1028 16.6071 13.091 16.5846 13.0718C16.5397 13.0336 16.4633 12.9656 16.369 12.8629C16.1774 12.6584 15.9035 12.3137 15.6206 11.7881C15.0594 10.7416 14.4502 8.94305 14.4502 6.04701C14.4502 4.44316 13.8231 2.90517 12.7066 1.77118C11.5915 0.637195 10.0783 0 8.49923 0ZM14.1284 12.6155C14.1928 12.7359 14.2586 12.85 14.323 12.9577H2.67698C2.74134 12.85 2.80571 12.7359 2.87157 12.6155C3.58401 11.2865 4.25004 9.19768 4.25004 6.04701C4.25004 4.90147 4.69755 3.80277 5.49381 2.99278C6.29156 2.18279 7.37219 1.72768 8.49923 1.72768C9.62626 1.72768 10.7084 2.18279 11.5046 2.99278C12.3024 3.80277 12.75 4.90147 12.75 6.04701C12.75 9.19768 13.4145 11.2865 14.1284 12.6155ZM7.76434 16.8419C7.52935 16.4292 7.00849 16.2888 6.60288 16.528C6.19726 16.7675 6.05957 17.2961 6.29456 17.7087C6.51907 18.1015 6.84089 18.4275 7.22705 18.6541C7.6147 18.8807 8.05321 19 8.50073 19C8.94676 19 9.38531 18.8807 9.77296 18.6541C10.1606 18.4275 10.4824 18.1015 10.7054 17.7087C10.9419 17.2961 10.8027 16.7675 10.3971 16.528C9.99147 16.2888 9.47061 16.4292 9.23562 16.8419C9.16079 16.9728 9.05301 17.0814 8.92429 17.157C8.79557 17.2325 8.64891 17.2723 8.50073 17.2723C8.35106 17.2723 8.20439 17.2325 8.07567 17.157C7.94695 17.0814 7.83917 16.9728 7.76434 16.8419Z" fill="#194B7E"/>
</svg>
