<svg width="20" height="21" viewBox="0 0 20 21" fill="none" xmlns="http://www.w3.org/2000/svg">
<g clip-path="url(#clip0_1239_23244)">
<path fill-rule="evenodd" clip-rule="evenodd" d="M14.883 0.954543C14.883 0.427364 14.4353 0 13.883 0C13.3308 0 12.883 0.427364 12.883 0.954543V1.90913H6.88311V0.954543C6.88311 0.427364 6.4354 0 5.88311 0C5.33083 0 4.88311 0.427364 4.88311 0.954543V1.90913H2.88306C1.2262 1.90913 -0.116943 3.19122 -0.116943 4.77276V18.1364C-0.116943 19.7179 1.2262 21 2.88306 21H16.8831C18.5399 21 19.8831 19.7179 19.8831 18.1364V4.77276C19.8831 3.19122 18.5399 1.90913 16.8831 1.90913H14.883V0.954543ZM17.8831 7.63641V4.77276C17.8831 4.24558 17.4353 3.81822 16.8831 3.81822H14.883V4.77272C14.883 5.2999 14.4353 5.72726 13.883 5.72726C13.3308 5.72726 12.883 5.2999 12.883 4.77272V3.81822H6.88311V4.77272C6.88311 5.2999 6.4354 5.72726 5.88311 5.72726C5.33083 5.72726 4.88311 5.2999 4.88311 4.77272V3.81822H2.88306C2.33077 3.81822 1.88306 4.24558 1.88306 4.77276V7.63641H17.8831ZM1.88306 9.54549H17.8831V18.1364C17.8831 18.6635 17.4353 19.0909 16.8831 19.0909H2.88306C2.33077 19.0909 1.88306 18.6635 1.88306 18.1364V9.54549Z" fill="#194B7E"/>
</g>
<defs>
<clipPath id="clip0_1239_23244">
<rect width="20" height="21" fill="white"/>
</clipPath>
</defs>
</svg>
