<svg width="20" height="19" viewBox="0 0 20 19" fill="none" xmlns="http://www.w3.org/2000/svg">
<path fill-rule="evenodd" clip-rule="evenodd" d="M10.4343 1.72722C8.38828 1.72722 6.52609 2.50649 5.13282 3.78334C5.1868 3.95202 5.21719 4.13081 5.21719 4.31804C5.21719 5.27104 4.4379 6.04524 3.47813 6.04524C2.83378 6.04524 2.27208 5.69778 1.97184 5.18165H1.91279C1.92123 5.16309 1.93135 5.14453 1.94147 5.12598C1.81159 4.88477 1.73906 4.60984 1.73906 4.31804C1.73906 3.36335 2.51836 2.59082 3.47813 2.59082C3.59957 2.59082 3.71763 2.60262 3.83233 2.62624C5.54777 0.998543 7.87382 0 10.4343 0C15.7173 0 20 4.25225 20 9.49967C20 11.8442 19.1448 13.9897 17.7262 15.6478C17.3905 16.0695 17.0144 16.4608 16.5995 16.8184C15.4761 17.7866 14.1183 18.4646 12.6508 18.7868C11.9626 18.9369 11.2626 19.0078 10.5626 18.9993H10.4343C7.06249 18.9993 4.09886 17.2671 2.39523 14.6493L1.77957 14.0876V17.2738C1.77957 17.7512 1.38147 18.1374 0.888938 18.1374C0.39809 18.1374 0 17.7512 0 17.2738V12.0905C0 11.6131 0.39809 11.2269 0.888938 11.2269H6.23091C6.72175 11.2269 7.12154 11.6131 7.12154 12.0905C7.12154 12.5678 6.72175 12.9541 6.23091 12.9541H3.13741L5.62874 15.2278C5.63211 15.2312 5.63549 15.2341 5.63886 15.2371C5.64223 15.24 5.6456 15.243 5.64897 15.2464C6.50079 16.0729 7.55167 16.675 8.7071 17.0006C9.31771 17.1709 9.94684 17.262 10.5777 17.2704C12.6861 17.2333 14.5922 16.3663 15.9787 14.9849C16.6028 14.3119 17.0869 13.5242 17.4007 12.6657C17.4698 12.4751 17.6014 12.3216 17.7667 12.2221C18.0855 11.3753 18.2609 10.4577 18.2609 9.49967C18.2609 5.20694 14.7558 1.72722 10.4343 1.72722ZM10.4341 3.45486C10.9148 3.45486 11.3044 3.84112 11.3044 4.31847V8.96709L14.3019 10.4548C14.7303 10.669 14.9057 11.1868 14.6898 11.6136C14.4756 12.0403 13.9527 12.2124 13.5243 11.9998L10.0445 10.2726C9.75097 10.1259 9.56543 9.82733 9.56543 9.5001V4.31847C9.56543 3.84112 9.95336 3.45486 10.4341 3.45486Z" fill="#194B7E"/>
</svg>
