<svg width="21" height="18" viewBox="0 0 21 18" fill="none" xmlns="http://www.w3.org/2000/svg">
<g clip-path="url(#clip0_1239_23241)">
<path fill-rule="evenodd" clip-rule="evenodd" d="M20.9442 3.01768V15C20.9442 16.6523 19.6577 18 18.0806 18H2.80795C1.23078 18 -0.0556641 16.6523 -0.0556641 15V3C-0.0556641 1.34772 1.23078 0 2.80795 0H18.0806C19.65 0 20.9315 1.33451 20.9441 2.97569C20.9444 2.98969 20.9444 3.00369 20.9442 3.01768ZM1.95521 2.55381C2.1131 2.22686 2.43768 2 2.80795 2H18.0806C18.4509 2 18.7755 2.2269 18.9333 2.5539L10.4443 8.77922L1.95521 2.55381ZM1.85341 4.92047V15C1.85341 15.5477 2.28514 16 2.80795 16H18.0806C18.6034 16 19.0351 15.5477 19.0351 15V4.92059L10.9917 10.8191C10.6631 11.0601 10.2256 11.0601 9.89694 10.8191L1.85341 4.92047Z" fill="#194B7E"/>
</g>
<defs>
<clipPath id="clip0_1239_23241">
<rect width="21" height="18" fill="white"/>
</clipPath>
</defs>
</svg>
