<svg width="19" height="18" viewBox="0 0 19 18" fill="none" xmlns="http://www.w3.org/2000/svg">
<path fill-rule="evenodd" clip-rule="evenodd" d="M6.33281 0C6.47311 0 6.60537 0.0374743 6.71825 0.103273L12.6415 3.1625L17.8164 0.108268C18.0615 -0.0363228 18.3615 -0.0353211 18.6066 0.111102C18.8501 0.257358 19 0.52688 19 0.818393V13.9033C19 14.1968 18.8485 14.4677 18.6018 14.6133L13.1446 17.8343C13.0123 17.9382 12.8462 18 12.6672 18C12.5028 18 12.3511 17.9485 12.2254 17.8604L6.3586 14.8305L1.18369 17.8846C0.938566 18.0292 0.638632 18.0282 0.393512 17.8819C0.150005 17.7355 0 17.466 0 17.1744V4.08968C0 3.79617 0.151602 3.52514 0.398335 3.37955L5.91513 0.12376C6.03608 0.0453012 6.17961 0 6.33281 0ZM13.459 15.7652L17.4164 13.4288V2.22765L13.459 4.56409V15.7652ZM11.8754 4.59524V15.8513L7.12461 13.3979V2.1417L11.8754 4.59524ZM1.5836 4.56426L5.54101 2.22749V13.4286L1.5836 15.7653V4.56426Z" fill="#194B7E"/>
</svg>
