<svg width="19" height="16" viewBox="0 0 19 16" fill="none" xmlns="http://www.w3.org/2000/svg">
<path fill-rule="evenodd" clip-rule="evenodd" d="M11.2525 0.197323C9.94719 -0.101015 8.59031 -0.0605106 7.30492 0.315143C6.02453 0.689453 4.85886 1.38462 3.91436 2.33594L1.58303 4.54953V1.60195C1.58303 1.16007 1.22882 0.801891 0.791489 0.801891C0.354159 0.801891 0 1.16007 0 1.60195V6.38242C0 6.40259 1.17731e-05 6.42259 0.00167463 6.44275C0.0216289 6.86631 0.367462 7.20331 0.791489 7.20331H5.5423C5.97963 7.20331 6.33379 6.84514 6.33379 6.40309C6.33379 5.96122 5.97963 5.60303 5.5423 5.60303H2.78693L5.00683 3.49399L5.02515 3.47652C5.78175 2.71159 6.71791 2.1529 7.74555 1.85238C8.7732 1.55202 9.85906 1.51958 10.9017 1.75825C11.9459 1.99676 12.9121 2.49881 13.7119 3.21718C14.5117 3.93554 15.1187 4.84702 15.4745 5.86641C15.6208 6.28291 16.0731 6.50124 16.4855 6.35384C16.8979 6.20643 17.1141 5.7491 16.9678 5.33243C16.5221 4.05824 15.7638 2.91901 14.7645 2.02097C13.7651 1.12293 12.5562 0.495493 11.2525 0.197323ZM18.9998 9.62077C19.0047 9.41757 18.9332 9.21235 18.7852 9.05251C18.6089 8.86342 18.3645 8.77987 18.1267 8.80441H13.4575C13.0218 8.80441 12.666 9.16259 12.666 9.60464C12.666 10.0465 13.0218 10.4047 13.4575 10.4047H16.2062L13.9929 12.506L13.9862 12.5131L13.9747 12.5235C13.2197 13.2884 12.2835 13.8471 11.2558 14.1476C10.2282 14.448 9.14236 14.4804 8.09809 14.2417C7.05548 14.0032 6.08769 13.5012 5.28786 12.7828C4.48803 12.0645 3.88275 11.1531 3.52524 10.1336C3.37891 9.71708 2.92661 9.49874 2.51422 9.64615C2.1035 9.79372 1.88731 10.2509 2.03198 10.6676C2.47929 11.9418 3.23758 13.081 4.23696 13.979C5.23633 14.8771 6.44523 15.5045 7.7489 15.8027C9.05258 16.101 10.4111 16.0605 11.6948 15.6849C12.9769 15.3105 14.1426 14.6154 15.0854 13.6641L17.4167 11.4506V14.4058C17.4167 14.8477 17.7709 15.2058 18.2082 15.2058C18.6455 15.2058 18.9998 14.8477 18.9998 14.4058V9.62077Z" fill="#194B7E"/>
</svg>
