<svg width="15" height="19" viewBox="0 0 15 19" fill="none" xmlns="http://www.w3.org/2000/svg">
<path fill-rule="evenodd" clip-rule="evenodd" d="M13.9288 0C14.5203 0 15 0.472502 15 1.0555V17.9413C15 18.5242 14.5203 18.9967 13.9288 18.9967C13.3373 18.9967 12.8577 18.5242 12.8577 17.9413V1.0555C12.8577 0.472502 13.3373 0 13.9288 0ZM7.50168 6.33066C8.09321 6.33066 8.5729 6.80317 8.5729 7.38599V17.9397C8.5729 18.5225 8.09321 18.995 7.50168 18.995C6.91016 18.995 6.43051 18.5225 6.43051 17.9397V7.38599C6.43051 6.80317 6.91016 6.33066 7.50168 6.33066ZM2.14238 13.7232C2.14238 13.1403 1.66274 12.6678 1.07122 12.6678C0.479693 12.6678 0 13.1403 0 13.7232V17.9447C0 18.5275 0.479693 19 1.07122 19C1.66274 19 2.14238 18.5275 2.14238 17.9447V13.7232Z" fill="#194B7E"/>
</svg>
