<svg width="18" height="18" viewBox="0 0 18 18" fill="none" xmlns="http://www.w3.org/2000/svg">
<path fill-rule="evenodd" clip-rule="evenodd" d="M2.70009 1.79989C2.20327 1.79989 1.79952 2.2028 1.79952 2.69983V5.40085H6.30075H16.1989V2.69983C16.1989 2.2028 15.7967 1.79989 15.2999 1.79989H2.70009ZM5.40018 7.20066H1.79952V15.299C1.79952 15.7959 2.20327 16.1989 2.70009 16.1989H5.40018V7.20066ZM7.1997 16.1989V7.20066H16.1989V15.299C16.1989 15.7959 15.7967 16.1989 15.2999 16.1989H7.1997ZM6.3473 17.9988H15.2999C16.7904 17.9988 18 16.79 18 15.299V6.30075V2.69983C18 1.20876 16.7904 0 15.2999 0H2.70009C1.20964 0 0 1.20876 0 2.69983V6.30075V15.299C0 16.79 1.20964 17.9988 2.70009 17.9988H6.25258C6.26919 17.9995 6.28413 18 6.30075 18C6.3157 18 6.33068 17.9995 6.3473 17.9988Z" fill="#194B7E"/>
</svg>
