<svg width="20" height="21" viewBox="0 0 20 21" fill="none" xmlns="http://www.w3.org/2000/svg">
<g clip-path="url(#clip0_1239_23238)">
<path fill-rule="evenodd" clip-rule="evenodd" d="M6.45769 5.5C6.45769 3.70666 8.04363 2.25288 10 2.25288C11.9564 2.25288 13.5423 3.70666 13.5423 5.5C13.5423 7.29334 11.9564 8.74712 10 8.74712C8.04363 8.74712 6.45769 7.29334 6.45769 5.5ZM10 0C6.68629 0 4 2.46243 4 5.5C4 8.53757 6.68629 11 10 11C13.3137 11 16 8.53757 16 5.5C16 2.46243 13.3137 0 10 0ZM5.57043 12C4.09306 12 2.6762 12.5918 1.63154 13.6451C0.586883 14.6984 0 16.127 0 17.6166V19.8497C0 20.485 0.510782 21 1.14086 21C1.77095 21 2.28173 20.485 2.28173 19.8497V17.6166C2.28173 16.7371 2.62822 15.8937 3.24497 15.2719C3.86172 14.65 4.69821 14.3006 5.57043 14.3006H14.4296C15.3018 14.3006 16.1383 14.65 16.755 15.2719C17.3718 15.8937 17.7183 16.7371 17.7183 17.6166V19.8497C17.7183 20.485 18.2291 21 18.8591 21C19.4892 21 20 20.485 20 19.8497V17.6166C20 16.127 19.4131 14.6984 18.3685 13.6451C17.3238 12.5918 15.9069 12 14.4296 12H5.57043Z" fill="#194B7E"/>
</g>
<defs>
<clipPath id="clip0_1239_23238">
<rect width="20" height="21" fill="white"/>
</clipPath>
</defs>
</svg>
